<mxfile host="app.diagrams.net" modified="2021-11-23T18:46:59.388Z" agent="5.0 (Windows NT 10.0; Win64; x64) AppleWebKit/537.36 (KHTML, like Gecko) Chrome/96.0.4664.45 Safari/537.36" etag="nZfFtk_vlcqjuABD6mb5" version="15.8.0" type="github">
  <diagram id="6a731a19-8d31-9384-78a2-239565b7b9f0" name="Page-1">
    <mxGraphModel dx="1730" dy="1000" grid="1" gridSize="10" guides="1" tooltips="1" connect="1" arrows="1" fold="1" page="1" pageScale="1" pageWidth="1169" pageHeight="827" background="#003469" math="0" shadow="0">
      <root>
        <mxCell id="0" />
        <mxCell id="1" parent="0" />
        <mxCell id="2019" value="" style="rounded=1;whiteSpace=wrap;html=1;dashed=1;strokeColor=none;strokeWidth=2;fillColor=#E6E6E6;fontFamily=Verdana;fontSize=12;fontColor=#00BEF2" parent="1" vertex="1">
          <mxGeometry x="87.5" y="100" width="165" height="670" as="geometry" />
        </mxCell>
        <mxCell id="2020" value="" style="rounded=1;whiteSpace=wrap;html=1;dashed=1;strokeColor=none;strokeWidth=2;fillColor=#E6E6E6;fontFamily=Verdana;fontSize=12;fontColor=#00BEF2" parent="1" vertex="1">
          <mxGeometry x="267.5" y="100" width="165" height="670" as="geometry" />
        </mxCell>
        <mxCell id="2021" value="" style="rounded=1;whiteSpace=wrap;html=1;dashed=1;strokeColor=none;strokeWidth=2;fillColor=#E6E6E6;fontFamily=Verdana;fontSize=12;fontColor=#00BEF2" parent="1" vertex="1">
          <mxGeometry x="447.5" y="100" width="182.5" height="670" as="geometry" />
        </mxCell>
        <mxCell id="2022" value="" style="rounded=1;whiteSpace=wrap;html=1;dashed=1;strokeColor=none;strokeWidth=2;fillColor=#E6E6E6;fontFamily=Verdana;fontSize=12;fontColor=#00BEF2" parent="1" vertex="1">
          <mxGeometry x="570" y="100" width="222.5" height="670" as="geometry" />
        </mxCell>
        <mxCell id="2023" value="" style="rounded=1;whiteSpace=wrap;html=1;dashed=1;strokeColor=none;strokeWidth=2;fillColor=#E6E6E6;fontFamily=Verdana;fontSize=12;fontColor=#00BEF2" parent="1" vertex="1">
          <mxGeometry x="810" y="120" width="310" height="650" as="geometry" />
        </mxCell>
        <mxCell id="2025" value="PRODUTOR" style="whiteSpace=wrap;html=1;dashed=1;strokeColor=none;strokeWidth=2;fillColor=#3399FF;fontFamily=Helvetica;fontSize=17;fontColor=#FFFFFF;fontStyle=1" parent="1" vertex="1">
          <mxGeometry x="87.5" y="100" width="165" height="60" as="geometry" />
        </mxCell>
        <mxCell id="2026" value="COMPUTE" style="whiteSpace=wrap;html=1;dashed=1;strokeColor=none;strokeWidth=2;fillColor=#3399FF;fontFamily=Helvetica;fontSize=11;fontColor=#FFFFFF;fontStyle=1" parent="1" vertex="1">
          <mxGeometry x="267.5" y="100" width="165" height="60" as="geometry" />
        </mxCell>
        <mxCell id="2027" value="Data&lt;div&gt;Services&lt;/div&gt;" style="whiteSpace=wrap;html=1;dashed=1;strokeColor=none;strokeWidth=2;fillColor=#3399FF;fontFamily=Helvetica;fontSize=18;fontColor=#FFFFFF;fontStyle=1" parent="1" vertex="1">
          <mxGeometry x="447.5" y="100" width="352.5" height="60" as="geometry" />
        </mxCell>
        <mxCell id="2029" value="App&lt;div&gt;Services Consumer&lt;/div&gt;" style="whiteSpace=wrap;html=1;dashed=1;strokeColor=none;strokeWidth=2;fillColor=#3399FF;fontFamily=Helvetica;fontSize=18;fontColor=#FFFFFF;fontStyle=1" parent="1" vertex="1">
          <mxGeometry x="810" y="100" width="310" height="60" as="geometry" />
        </mxCell>
        <mxCell id="2031" value="" style="shape=mxgraph.arrows.two_way_arrow_horizontal;html=1;verticalLabelPosition=bottom;verticalAlign=top;strokeWidth=2;strokeColor=none;dashed=1;fillColor=#FFFFFF;fontFamily=Verdana;fontSize=12;fontColor=#00BEF2" parent="1" vertex="1">
          <mxGeometry x="227.5" y="111" width="67" height="39" as="geometry" />
        </mxCell>
        <mxCell id="2032" value="" style="shape=mxgraph.arrows.two_way_arrow_horizontal;html=1;verticalLabelPosition=bottom;verticalAlign=top;strokeWidth=2;strokeColor=none;dashed=1;fillColor=#FFFFFF;fontFamily=Verdana;fontSize=12;fontColor=#00BEF2" parent="1" vertex="1">
          <mxGeometry x="407.5" y="111" width="67" height="39" as="geometry" />
        </mxCell>
        <mxCell id="2034" value="" style="shape=mxgraph.arrows.two_way_arrow_horizontal;html=1;verticalLabelPosition=bottom;verticalAlign=top;strokeWidth=2;strokeColor=none;dashed=1;fillColor=#FFFFFF;fontFamily=Verdana;fontSize=12;fontColor=#00BEF2" parent="1" vertex="1">
          <mxGeometry x="767.5" y="111" width="67" height="39" as="geometry" />
        </mxCell>
        <mxCell id="2036" value="" style="verticalLabelPosition=bottom;html=1;verticalAlign=top;strokeColor=none;fillColor=#003366;shape=mxgraph.azure.cloud_service;dashed=1;fontFamily=Helvetica;fontSize=18;fontColor=#FFFFFF;opacity=25;labelBackgroundColor=none;" parent="1" vertex="1">
          <mxGeometry x="87.5" y="160" width="873" height="540" as="geometry" />
        </mxCell>
        <mxCell id="2047" value="Realtime Processamento de Dados SED" style="text;html=1;strokeColor=none;fillColor=none;align=center;verticalAlign=middle;whiteSpace=wrap;overflow=hidden;dashed=1;fontSize=36;fontColor=#FFFFFF;fontFamily=Helvetica;fontStyle=1" parent="1" vertex="1">
          <mxGeometry x="10" y="25" width="890" height="50" as="geometry" />
        </mxCell>
        <mxCell id="2048" value="Business&amp;nbsp;&lt;div style=&quot;font-size: 19px;&quot;&gt;Analytics&lt;/div&gt;" style="rounded=1;whiteSpace=wrap;html=1;dashed=1;strokeColor=none;strokeWidth=2;fillColor=#FFFFFF;fontFamily=Helvetica;fontSize=19;fontColor=#FFB366;opacity=75;verticalAlign=top;fontStyle=1" parent="1" vertex="1">
          <mxGeometry x="456.5" y="281" width="147" height="289" as="geometry" />
        </mxCell>
        <mxCell id="2055" value="Messaging" style="rounded=1;whiteSpace=wrap;html=1;dashed=1;strokeColor=none;strokeWidth=2;fillColor=#FFFFFF;fontFamily=Helvetica;fontSize=19;fontColor=#FFB366;opacity=75;verticalAlign=top;fontStyle=1" parent="1" vertex="1">
          <mxGeometry x="640" y="170" width="140" height="570" as="geometry" />
        </mxCell>
        <mxCell id="2068" value="&lt;font style=&quot;font-size: 19px;&quot;&gt;Debezium&lt;/font&gt;" style="rounded=1;whiteSpace=wrap;html=1;dashed=1;strokeColor=none;strokeWidth=2;fillColor=#FFFFFF;fontFamily=Helvetica;fontSize=19;fontColor=#FF9933;opacity=75;verticalAlign=top;fontStyle=1;" parent="1" vertex="1">
          <mxGeometry x="280.75" y="277" width="136.75" height="133" as="geometry" />
        </mxCell>
        <mxCell id="2077" value="" style="arrow;html=1;endArrow=block;endFill=1;strokeColor=none;strokeWidth=4;fontFamily=Helvetica;fontSize=36;fontColor=#FFB366;fillColor=#FFB366;" parent="1" edge="1">
          <mxGeometry width="100" height="100" relative="1" as="geometry">
            <mxPoint x="583.75" y="430" as="sourcePoint" />
            <mxPoint x="663.75" y="430" as="targetPoint" />
          </mxGeometry>
        </mxCell>
        <mxCell id="2082" value="" style="arrow;html=1;endArrow=block;endFill=1;strokeColor=none;strokeWidth=4;fontFamily=Helvetica;fontSize=36;fontColor=#FFB366;fillColor=#FFB366;" parent="1" edge="1">
          <mxGeometry width="100" height="100" relative="1" as="geometry">
            <mxPoint x="754.5" y="424.5" as="sourcePoint" />
            <mxPoint x="834.5" y="424.5" as="targetPoint" />
          </mxGeometry>
        </mxCell>
        <mxCell id="m29y2VmwEVTWNMZL703p-2086" value="" style="sketch=0;aspect=fixed;html=1;points=[];align=center;image;fontSize=12;image=img/lib/mscae/Docker.svg;" parent="1" vertex="1">
          <mxGeometry x="304.88" y="176" width="90.24" height="74" as="geometry" />
        </mxCell>
        <mxCell id="m29y2VmwEVTWNMZL703p-2089" value="" style="shape=image;verticalLabelPosition=bottom;labelBackgroundColor=#ffffff;verticalAlign=top;aspect=fixed;imageAspect=0;image=data:image/png,iVBORw0KGgoAAAANSUhEUgAAAMgAAADICAIAAAAiOjnJAAAu+0lEQVR4nNS9B5Qkx3nYXx0m55nNu7fx7nb3Eu5wvADgkIkgJAKMIv+CRP0FSRZM2rL8KNvvSX5wUrb9LMmyREmQKVGUKIEACAMCYKTjIRxwOe/d7t7mMDuzk/N08tuZ2d6enp6eqp6embrvkfv6BtXV31ff19+vqru6in7xxjcSzBpomBgIs4GyWim31zTQaR3ttuzpsO4gAdW4KwIAQtn5v57+FQEQYON/AABCKPzd+CNIjjd+Lx1s/BfpsSAey8pv/CUAZaLMNGlxG9s7zQNdlsFB+26n0dtQowAA/+HCdxiBU1ISKBsrHgsVBiofEzRBuwwun8nTYfaNubYP2vtMlFGDqrQO5qoKI2QZNptmw+u5mcn4BwAAM+UasH9u0H5k2HmHgbQ05rIEXFSVCsNElbQAD/gMlwZcJpEPLyQniyXbzX1D9t273Ed6bcONMaqakjWjquJc5cIbJRmBW8+Fg7nI9fjMicAZApC91s7bvOP7PeNekwteVeoL396b51P62V5bWCEXys3eTHx4Ofw6K+TazTtoUss9oSIZNnYx/E+FQ/VcRcDnKoW/Qln4ptj4cnrmQvjEjdgFE2XpsPTpaxQA4Lj/Xb4QJoi5qmpi3myBUlRVJjABgDiTmozPnQicnUuudFvanQYbjKotCCxROCG/nL50NfKmy9jrNfXrWHMhsN7QnYBlx0KZe6QFkmzseuzcUmpmyDFmovRMyYXA4htBQKWokle+not9Fryc45ghey9F1ujMtDKwisIKuan48UBmqt0yYqHdutRZzFiqBITNVcqeEGp5FIBIPng2dCLH5fqswxSpT5fjuP89ThDK9VEnoPItVEnAmlG1aTWYSS6fWr/qNTq7LD4VVUldDK5fZpMnfzD9y1OxE3pVqDsBt04UqnTgykJ2o0yey38ceOt70/81xSb0M6o5BFSIKvE4xiT/6ub/eX3xI17UqEJwCaxCj5h9e/m3pmI/0ak+nQlYqrU6ASXHQOqwlcz8i5O/F8kFdbBJIPQjIKhOwGrJr+z3d/yn/nLqNYZnFTXFKLA2Yktg31r6z6eDP9CnuvrGgArHhQqrAEUNLuF88C+nfn81vaiPWbUJWHUMKDkmBGgCVkvMV6IzL06/zvJcpZJ4BVbBMOFk4MWLoVfrrqgRBFTPVWpwSbKJH8z8SZKJ12dVLQo3koCKLXk1Nvfi9Bsc4GWKYhdYRfl47c/D2fl6atCdgLWiCsgIWAmXBBv74ex3OUHh/tZkVGsIWFn5ldjsy3PyzjGmgcUKudcWfjPFhrWd3ggC1ooqqOHVQnr21YW/1WYUUNehiQSsbMkTgUvnQlNSRTENLAGAGLP69tLv1FdN6wlY6bBLkVNXIufqM6r1BKxsyX+YP55hc6KWOAaW6LDF1IXZxClNdag1dJMJKC8vED/xvwWqD9TV7cKHgLIXAEk298bylrOwCyyZwz4N/E0d9eBCwC2HFepcy/o/DWh5YocbAWX1nFi7Mp8sTWjAK7Aq4bKWmboZO6mpMrwIKDt+3/9mlstoMgovAkqjkwfCjxY+LiqKUWDJ74zNtjiz/pKm+rAjoPT3DJc9s/6pJqOaScCafQl5zruZXFtJhzEKLBWHrWSuraZvaKoTLwLKuiyfBj/kKx7/wDZUkwgIE1VA1jhnw9O4BFZNuFyNvINeJ44ElMIlxkSWkgvoRuFGQHmrngvPYBFY1QgobYvZxGlNdetOQBUloQgoi4b51AyyTVgSUHq8lo1F86kWBxZklyXBhiK5ZcS6G0FAFSVhCSg9dz45p8UoLAkorfNadLGVgYUEl0AG+ebGk4DSc1cziHeLUDVXtZyA0oHqVMLfssCCIaBU72h+Fa1+jAkoHsfycYZnUBoNXwICyUB1KR1uTWBpGLQnmBDKFWpHlbQt9CSgcqQqO0wAQjiHZJcaDYGEgEqJueEEFMuEcokWBJa2QXuaiyFep2pUSfpVQNv8KrWGRpwGHUebSFM1qjYMESoMVFRSOapgCFi9VYWynJfhmIZ//iUTVAKKxzkWdWK+OgEh+1V15qracEkxScQGVHY2wpCiYQSUlm9qxtJAQNFheT6r9VrYEVD6e5bLoRiFNQGl5ZuXsbQREGw6TEC+oAIBS78LtcKutpJAUUl0uBACsmVyAsIq2XgCSss3KbA0E7DcYaiiOwFhlESFC5pFmBNQPG4GCushoF5RpRMBYaIKSMrXdhiqVc0loEpUAZWoEpqQseokYMUdhnxdXQkIE1Wwk0xk0QxnVJMJqBJV1XNe4W9jA0tvuCBJ+a2MHQE1J2OsCSgeNxCF+sFFLIkq+BJQklCRLMOdgKKSJE3ovNJLUXSFy8YBj/LVFE0YdX0K2jgCEiyKXQbS0JSnoCpRVYOApQYXAGmmnPCGQYrEBsQXt9W/MmVR3qlZaHvpQtDrLOiipIY0kEexy0iYqoc+UYuAOrxdhslVxXpIm6EN3jAY0ZeA4rk5Lg2vg4my0oQJZwKKxxkW4cGvo7Q2Fb4EFBMqqe/CVLoTUDw3w6UAykRel7FdZwIqz6/SnquKdcbzCO8KPSY35gQUzyU7zaPwhqlLQ+HCAzaeR/gwus3UozMBtcOlmsM2/ms4H4E3qtvSUVE5XgQUzyW7rOPwhqlIgwgobYtoPgCvT4e5X34hnAgoDtrXcwh3S9dGYDWTgCqRVPVRbfFc0kK72kz1LsbaOAJK28KPMom03z6KMwHFc7NcLpqLQho1bN9GALKJBISIqnICivWQAIAB+2FIwxSlacOr1fRNeK222XeaKTu2BJSeu5BagjTKZrBudwzgTEDxeCOwhhxH4R0mkyYQULRhOT0FrxgJqF3uIxUGN1pJLXCZhw4sAMBB357yChUvpL+SSscKBBQbaiOwemy7fJpo2BwCindVnAmFsivw6h1ue5gEtK4ErNNhQNFJN2LT8Ebt9455jW5sCSg2VPGVDnlnx/8Pb1tRmkZA6blT8TPwGvrMnfu8x7AloHgcyK2HobtZBtLwcM9d2BJQrL/0rnDIebTTMgbvM/md0UgCSstPxS/AKwkAONb5BFmYwYEhAaXHcyifRH+ubbfX6MaTgGL5rZfQD3T/K5IwwBgG12XRjYBiAQGApfSNWH4d1gMAuI2+Q74H8CRgsUDx+FoMqftIPtZ7DE8CikZtBVa7ZWSf96maVrWEgNK/N2Jon9vf2/UFB+3BkIBA0pITsWmkDwwP+naNO4fRlWw4AUslhfIZpIfbf8ZGq706bBUBpceTcbR1Fk2U+ZmB5ySPf3RUUhe4bPwzx+UvhSeQ7Pr60KMO2oYbAcWoKAssM+V4euB3bLTyVhYtJKD0eDF1I5BBGJ8DAAbtO5/Y9iyxcRdVUbJFBCx6peiw4/5PkVY1chptz+142kwpzXdoHQHFIYV8op/PPPjM4O8aSavs95YTUDxREMBHa8irwB/w3XVP52O4EVDakivZ4IXQNSSjBuzdXx98uJEEJFAJKBZQmEHqNQ1+vuc7YCvSsSDgpiobP16PnQkiJi0AwD3dj4+59mNFQFlLvrP6MepSbPu9O7/S/0BDlUQioPgL9cILL1Sq6zUPdFv3LKbOM3xaXlddBITNVVUS8laB9ax/n/dOafTXFAIQuzy3GwjjfGq6sLtQPQ8YVRxWNTprtmSKzXSafN3WDnijCm9FuwbtXddjCzmOU2g0RCWrNXi1hiqvcKuAcmAV5jN17/I8vJK6mmCDOBBQVmGUWXcafF3WASQfEIDot4/0WYcmYpcKO0RoUFJnAspacjWzflfnAQLlhtkY0Zvde9zDE7GFdOG7av0IqJKrlAkoFqgaWAAAmjSNuh7Icam17GT1tlC6ts4EVL51llIzB3z30iTUszepeE1te92fW00vRZlI0wlIVBJQWnmay1gpy4C9B9Uou8FypH08zWYX0+u6KKmNgGJhtcACAJAENeQ4POK8K8PGw7mllhNQWpgR8nkut925D9UHhUnx1v2+Ix6jL5QNprlUawkoq/xmYmncNeQ02lGNoklqj2dop6Mvkk+FcomWEFAsQAiCAKl3MDt7NvjSjfgJXgEiOueqrYZWNZIA5M+O/Jt++w5UH0hlOn79vdU3l9ILGhIqdBqQ39/qWd9ndP/6np83oidjUVbSoX9aPnM+Mrs1roJTUrXBFXJVtQIIgVWUeD5wNfLuXPKsPzMtAK5BBBTbotatA9zG9ud2/KaFhtoBW0UWkrOXIudvxCcihQnQDX3AWCPrF4o91H3HY33H6jRqPRs/E5o+G55ZLqy93ggCViTm0o/IgSVKnssEsjPR/EqcWU8x4SyXYnlGKI62SrJxMV5gWZ7N8qkMm0ixMX5rS2ONBKw0eJt1+/83/KtGyqTNEJnE8tFAdi2YDUTz0TSbznG5Yjdf+kiFBwIncHmeTbPpFJNOc9lK/TWOpjfTAElQPz/y1F7Pdl2MSjJZfyaynIlE86kkk0txOYbnyvXZunrxH+WBAioNBJIf5U8oNGSseoQHfDIfCWTn/emZpfSNpdQkK+Q1EBBUwGW/99hT/T/bNENkwvDMei60kl5dTvun4jNr2aA2AsrgQhH086NfHnH0tcqueqSpgSUThs/NJa/OJC5ORD/NcEkUAio47LG+bxxqu7dVtkglnItei924EL5amBpaz8rYhIUy/Yuxr/VYdf72swnSysASheWZueTV67HT12On81wWkoCVaeD+rqfu6XqsVVZUSpxJTkSnzoQuzSYX0aOqdAvZaMuv7/4ZN/ogsbWCRWCJkmGTp4JvnQ69V/juGTZXAbAFl3s6H3ug+8mWGqEgS6nVD/yfXoxcFxTffakOrwRAuAz250ef6bYoTw7AU/AKrKJkufQJ/yun198V+4wQUbWVBh7YyFuPttKAKjKfXH5l4Z2FtL/wL9ioKh5bKfMv7Xhy2IH84LRVgmNgFWU5NfP28vdXMnMahlcHvHc82ffTFNnsNaFrigCEU8HLry29X3j3gvay0kDSv7j98XE32lusVgm+gVUcRZ5bP/7e6o8KSyarR5V8qDVo2/FM/7Nuk7e1JihKNB9/fenE2fA11LcUNEE90nPowe7bDSTVQv1hBOvAKkosH355/ruL6ZuoEysMhPHh3qePtN/dUvWryvXo7F/PvJ4uLceN8LKyy+x9bsejXRZPC5WvKbdAYBVSF/fa/PcuRT7V8LJyj/vg0/1f0+vxqb6ykg58d/KVKJOsmatkidlMGb/cf+xoO8KHVU2WWyOwCiKcDLz7/uqrrMCqPWxUgouVsh9qu+uOjrttNHaD9jSb/Ye5d89HJuGjSjSwz9r2eO+hfZ7BVhpQRW6hwNqQxdTN79/8wzyf1/AK3ExZ7u965JDvqJFqyOqY9chL8x98GLigbWLFgLXjp3pv3+fBq1N/iwUWAOBG9NLfz/1pxZMI2Ok6Fsp2rOO+w21HLbR8Xn8LhQf8X0+/eS4yhRpV4kyYQVv7Iz3793n7SQx2zb0lAwsAMBG98PL8/2YEBjWqRIdRBD1gHxp37R51jflMWDx45AH/yvyJnwQu1rPjiI22HPAO7nP373B2mluamG/JwCpMorr2tzP/iy99voQ6XacsDXiM3lHX2IBtsMfa7TP7WnvH/9X0m+fCU3C5SuWxCwCAHLK3jzm7h+3tI44OK93ssQuxkpooTDEQFZKIUPajJAArSir9XphAQ9Ck0UharLTdSuu8PPOngQ/eXPmRvquimUhTh7mrzeTzGD0Og91EmWjSQG59y1QykASkiTKZSKPX5LbSFh2NSjKZ37nydzEmpXnCquL8Ko/R2mF2+kx2t9HqoM1mymCmDCRRNiuGAMBA0maSthtMbSYrXd+jMuIvrn8zxgQgOsI1HaYyF3Tj2ETa2ky9HZb+ftvokGOPVY8B2svzf3MhfEqvqFJ3mLywUKrHTts7LG0Dtt7tjoEhx7Z6pn0WZSUd+qPrrybYDDwBq0xoq2Vs9ddKBCB8JtuI3Tdk9+x0tg3YPdVySTUh/vz6N+NMUH7tBs8FJQA5aN99R8djQ466VkDNcbk/nvjtGBPWQEBUuJSdW+VRrYE0HPbtu6/rsM/krseuyfjSH17/sV4TVmHmgqq7u8vseLh75M72fjMF+5aMeupbB3J8qtFRBcp/FACI5AOXI58spKZ8pi6nUeNDZJqke63bzodP65GrtDhMVjkv8Itp/4eBc/5MaMDWbdHas/GZnOvZ+FImVCcBlYxViCpQ2RrlFSbZ/MVI4B3/jJGkRhxemOxVDKx04wionpCj+fXz4Y8C2eVe67CZ0jL+dxu9vMDNpWaaQkDYl5X+zPpn65c5nu+1dhg0vQsfsHecDN5gpd+tNJ6A6u5mBeFyNHAmtGqjjb1Wp3p4UU996/ZsIWMB5VylJaq2/kLtOAKCOf+50AkLZeuxanmIPOjYfil8LsOl68hVmr8yBZJWKnMYI3DTiaXToWvD9l630YFqlJky2mnz5eg8jJLlkV3N2NpfmSq6G5S3ZJxhTodWl1KJA95OqvomX9SThYwFmkLAqgYLgBf4qfjlPJcfce5C9cHG2JOgr8cnlJTUjYCV1FCuvNxhOZ65EJkasvd4TciD4l5b25XIQozJNO0rU8WoUsgXgFjOJC9Fggc8nRZaOR9TT37r9o0+VnMJWA0ui+mb69m1Ycc46vfNnZaui5Hz2cLXMi0koCJcWIE7vX6dIqgRRy+SUQQgeq2+k8EbUFHVMAJWMzbK5D5ZXxl3+TxGc6XyhcDiKlb+0BRViARUdlgwu3ozcW2f9zCFsvsrSVBOg+tKtPKxdbMJqNiSAhBuJBZpEjm2PEZ7MBNfykQUlWwmAeXGFv5mee5sKPA5X5edlicCsmJD2+YQUGWGMVjNLL259I9IDgAA7PLs9RrbKtpCTclaaQAA9O8By38vO/eNpZOT8UVUux7quU1VyfoJqHRfKRBQuSXjTP73rp5JMHmZ2mRFG8FGVeVae5sJufpDRQADl42D8+GTJwPvIzmABOR9nQ9BE1DZSYpr7amEHRJceCD8xdQbCymEHYE2elpWr6uwm1xVAlaNKlBmlFBpoIKSRXcreblqX8KfzfzBtXObiyiJ7qiVEmuuNKQLASuT+VsrL0/H0ZblvM13wErZGklAAomAlS2Z4fLfnXw9w+aQ7Lqvc1fTCKhtQcDpZPyVxbKdjkjJZWBzVYMIWFn+xws/yPPyHKsiFEHtdI03koDKt6w6AWUtGWNSH/gvwhsFADjavoNQCIKGEFBaDCnrv7W6sJ7LiDqTm+0FG1UNJWCZ3gIRY6KfrKEBccw1Dt8W6ASEiaraaeA9/4VQLgFvlNtoG3f1toKAKi0pD988z//p5DVxoUtSMwG3TmzEvsubxx8HPshxCJvbbnfsKKy8rZa36yCgelTBwiXHM68ufAJvFADgkG8YQwLK6rkWj3wSWC0qTCo2NNJqs6BKAc0ElA5Jcnz2zPpJeAdYaEufdRuGBJTlvPORmUAGdv+cjTGvq2/L2Y0koOZxT/H4laXiq4Kypc/VoqoKARVzrJLBKASU1fNx4DjLs/A+GHWNQbZFkwm4qWDxuuDt1fPwRrmMlgGrrwkElCoJQ0DZ8UomfSUaFvtYtXNVRUNDrgmjkYCiswEgEmz8ahShtzviGMGTgLJWPRWaRBoejrl68CSgrNFOBgNiH6tGVCkSsFZUgXoIKLPhSgRh068ea08pE+NHQOm5nCBMJVbh7eq3+bAl4ObxRta/GouW97EQCQiVb+ogoLT8VGIS/rmDgTS0m9vxJKDs3Mk4amBVjezWEhBIBqpr2exqJk1iS0DpuazArqaX4X3Qae7EloBSuMwmkfbld9AEhS0BpY12KRIhcSag9DiQXYP3gdfowZaAEocBP8rAsNCFtzaXgCqRJCeg9NzZZJIsDzqAFQGlDgtlEfa/dBpdlfXgQ0AR02kuH8un4e1y0GZZQzWYgBBRpTRQnU+nyc0gwJGAUofFmDi8A+y0TeFO1aBk4+GC9Ai+8HkgvgQU61nLZMmqVW/9bSUBxbbIojx/t1CWxhCwhpIa4JJgkOwy4ExA8TjFcbS0TavkugYQEL3LkuUyCA6gLRVQaIaSGuCSZBECy1T6ar4ZmFY2VpImVaMC0GVJtbKhNa2MvVkPdETWcNhGeUbg4B2w+WHMVg1oSjYlVxWP8zySXVvTnJqpJIpnSwdbH49rIqCKw/QhYHk98EJU3p1YEVCQNTWCXfgSUFqertpw9fardISLFh9gTkCJRah2YU1Asbz4wQKBJwG1tT7QpmTL4AIrQun/+BJQbHBSISVgR0BCEw1BqSpcCYgaVZsnlmU73AgoRkVFH6ve+VVKNkA/Ba3VFsg+UFlnodxqRWNhlATVHQbgHIYiFXWW3edAucF1UbLmdB1ZVNAEoKAJKonQqlFVYYNO61fxAsL27kTxREgl6+qyqFO1lsMEwKMsfEcSW3XK7/PGKVmqUyUq5FG10ceiSeOmkXUSECZXqeitnqsIlkcILCNpFNevQu+ta1dSQ5eFQbFLfIxSLfRbTkDxXNJCOwHuBCw+x2LgHWCjreUggI8qSCVBdYcBJIdlOSS7jBKLFKJKbwKqRFV5Q1VEBek2tuvxjU2FDbqu4AgAkUZ5Qm2kDFbKInuVLleypQQUHZZEmUTqMVoknpIrKTVWqF/JGv2qGgQjO8zbauRMAPPilqhFwLqiCghEjsvlOYRvDNvM3orKiVoEbMGL2zDK7IZOs73MI5IG11/Jqv0qomZUCYAgOy2DqlEFVM9XKq8rAYGkNxDJI8xeaje3Va1cOwFVlATa4LKeS8Eb1WVxVFaOFQHFhiJ7rSMGwqSVgDBRVWeu2mqLtUwQ3gcDtt4GEFBFSTQCiucGsgkW+nWhlTYO2TyNJWCND4FgxnAbQtKkoc+2QysB1aNKBwJK22I5vQLpgMKXqwM4E1CshxOE5XQM3q7bvb1A0uDNURKegKIOJABgyLFbqS5cCCiWX0IJrA6Lr620WSGOBJQ6bC4VgrfrcFufYoNv/vcWE1AsvxFY4+7DROF7KTwJKJafTy4hfbl6d8fnsCWg1GETMYTp/B1m2z53J7YEFMuThTUn2sZdh7AloFhPXmBmk/PwPjjafpujOEcZPwJKdbga85f2boGTL/SNNV9JSAKK55beFd7V+YR4jBsBpcfXY9PwDjCQ9P1dR7AloFg+zbGLqQi8XSMO77B962FKc5REJVgpmDotfZ/z3Y9GQOVvbPQnoFhAAMTFyAQPEN6BHOs40Gby4ElA0SgggCsRP7xRAIAnenc0hYAwUSVvqCKmt9bpfrD7Szba1aBvbOohIJBoEmPi8wmEL1dpkn605y48CQgkEXAxgvBJNADgoK/7NncnhgQUB6pbgWWkzHd3PIEnAaV3xrXYJJIPDrSNDdl6m6ikFrjcTIYiOYSvRQAA3xzZZ6UMuBFQ3scqysH2e8ddBzEkoGiwIIAL4WtINCQB+fPbn+owe/UgIITDNK00JADwjh/thvGZLN8ePUgTVIWSrSSgWA8p88EXB58btu/CjYDSzl8kH7sYRlv01mm0PT/6ZXthr16sCCgt8L5/JlWxqLW67Ha3f3VgDCsCivXI90KhCOorQ7/kM3XCEbCKDQ0goNTI4/7PkBxQeKTi+PrQw6CBSmqBi7Rwjuf+7+oUql2P9Awda+/Fh4BizqNeeOEFma40adju3DObvJFikxU5tlKneqKqanTKDS43Ms6kvEZXr7UTyQcdZk+ftf1GfJHh2YbMhFE3FqIl51LRYx0DZgphuxcCgNt9XTQgr8civB5KQhCQkBEQKNWjEFiFL4lt+713BLP+YG4NEwLKDJtNLh9t24+6Y1unxXvAu/NqdC7N5jAhoLQAKwgkQex2o90wBABjLm+72Xo2HGw5AcV6lAOryMQ9noN5LreYnm0RAQlQ3cg8z/ICP+oaQvJBcV2N2zzb5xL+KJPEgYCy+3Mxlbi3c9AEvZGpKP02xw6n+2IklCvNdW4JAbdsqRpYRdnuHB+wjYSygTgTq9YWTSOgrPKF1OqYc9ilaSvAIx3jPqNrIR0szAxuMQGlFbICv5xOHGnfRqBaBUCn2Xp/V2+e5+ZSSaFFBBTLEwLcVyJXIuffXH4lXlpLqKG5SsVIeYUDtt5fHf8ZdBeUJMcx761eeM9/McsziEpqSQPwWf/rA3se7d2u2S5/Jv3D+ZufhYLFK9aRq6o8DYAgGGxgbfQAePZi+MzHgePB3FqjCQi/KtqX+h861nlAS/NvSobNve+/9JPA1cLCLw3/fEUl64sOMxDUbx+4v91sq8euhVTyteWFz4JBpuTiZhBQPBchsERZSS8upOaXUgvL6aVQLsQV9i1uGgFlFVIE/dyOZ8ZcWvb8lQoH+PlE4Hp8eTEVWsvGAtk4V2iZ5hCw8v7c4fD+2913FpaXqUtyHHc1Fr0ajc6mksvpTJTJoxBQbmBNAoo/agksqfCAj+WikXwky2U2qy4TlmcZnk2x6QSTCOej0XwskAkyAlsPAWUOM5LG7+x+tt2scSt8ZbsEPpxLxZlMmstVfNJIcILA8lyWZ+NMJpLPRHJpfza+nkvVSUBZa9zZ1vfPdtaVjCslx3HruVycYcpMKoUAIf+h/MdyIRQqkPxYb2BpEE7g1jLB+eTCZHxmMnEzX5q7h0ZAmcP6bd3/cvxrVOn9RmskzeYXUpGJmP9KdHU+Ha20pSYBK439Sv/YU33aO1stlBYEllRYnltJr16LTV2OTqxlQtqiqng85hz85sjjFtrUOmu2JMXmJ2Jr58PLl6L+FKtEH1AtV8mT9Ff6R2/F2GpxYEllIbXy3urHV6LFd7G1Cbj5+5Zj+qyd3xr9EiaxVRSW5z8Ozr2+dH09n4YkYKXh/3zn/jvaelpnhBbBKLCKsphafXcjvKbgokqeBsadg7+088nWMrFSOIE/vb70o8VrwVzx89QaBATyjjDxzeFdD3b3t8wAdMEusIqykFp9e/nDifiMhuHVgK3r2eFHOszuVhqgJAzPfRxceHNlei2b1PCy8v7OvmeHxkwUXvdMNcE0sIoyk1j829k3wvk46vDKRBp/ccfjo65trdS+ivBAeGVh4rWl0kQGpCd/o07Pd8YPWGjkFz7NF6wDa6MXzGS+P/v69dgc6qDdQBq+OnDv0fbx1umuJhOx9T+bOhfOZ+GjqnjcabZ+e3TvsN3ZQuVhBPfAKsqp9SuvLhxPc1nU4dUOR99XB+/utnhbqX0VSbPM92Yun1xfRn2eTBLEE70Dz/QN4YzFWyOwAACBTPhPJl+K5JOFfyEMrwyk4Ynew/d17qFJHN3w7urs92evbS7egPDuy2c0Pzu040hbR+t0V5NbJrAAALF88ruTry4VlgZBHbR7jc6vDdy1xzPQOvWryqVI4H/cOJfneQ1vVA96235ueHuH2dJKA5TkVgosAECGy/3RxEtLpWVnoB4wSuGy1z3wSM+BYQfaTLomyOn11T+avMCXXo6grQtKEeTd7Z1f7B/oMJtbakSZ3GKBVRi0s39y45WbyRXNEytstPmO9tGjbdt7rRj1veaSsd+6cjrNVb5FVc5VlcZ2mCwPdHU90NnpMhpbZ0dJbr3AKmzYlP/j6y/Pp4rbk6JFldRJA7b2w76RcVdvjxWLh17T8eh/uXI6L/AaokrMcwaCPOD1HvJ597ndntZF2C0ZWIX+VuoPrv0wmk/BP2DcLKPgMK/RPu7qHbD5+m2+XovbiD4zWC95fXn27+amYAhYcy4oAYg+q3Wn0zHqdPRbrd0Wk7WJD8CI1xd+lOJSEr1luor/3DoQNt9IVMyX2Cop2kwRlIE0GEmj2+jsMPs6Le1uoz7PYNYykf8+8dLm4rB6fmNjN5jdBqudNpsomiIokhAdVipMEoSRpI0U7TZYuiyObouj0+Ig9DCKB+DPJq98GFxVVhh9vXVpPRaKchkMNpo2UZSJJElCvsECTZImkrTTlM9k7LYYdzqsXhPCJ0NSIX7/yn+M5iNI70RRRy6yH31Gz23esXHX9kFHLwnqmsh2LjT94s23dVRS81xQt8F8wNu739O9291OVXytiSQcEH778tlr8aheSkLPBVVonC6z8ZDP8VCXZ8CGNjKgHn7+/iyXa3RUSf+mudxscvlU6PJEdMZtdLSbtfegu63exdR6IBvTnqvqc5iYJzI8N5uKnFxf+mx92UoZeiyOQp7TIiQg9rq9x9dW8ptTilWVhMpVEFFVXs/mf0qw/I145q2V6PV4xkKRvVYTpFXUw88/kOWyunxjI7+Vq+4NUbIhxiTPhifOhSYslKnHqvFB3y5X/8XIbGoTiPUQULGha70Cl18oyTBnw6sn1uZJghi0ubWFl4WmrRR9PhLShYBAZgvcDGNQPgl2Nct8GEycDiXbzXSPpfaYYCOwMlvdFJhcBZUGVHccKXNYms1eik5NxheH7D02A/KDPgNJD9u7Pg5OaFCyurE1vzIFEkMkTtp0WJbnLkWDp0OrAzaXz6Tl6eWgw3khEo7k83Wuty5vcKD2lWlFVG2dXvwxlOeOBxJXYpnbPFYrrfYmg3roVx4s7OPdcAIqVC5xWCQf/2z9ao+lrQP9vZ7LaFtKh/zZaEMJWPG3AosVq80mWObDwJLbYBqyIz/OIADot9o+WFttCQEldcqNAoBYy7IfBVIHvFa3seowk3poA4W5ZhKwGlxYgT8fmTIQ1KCjhwBoBOk0uz8KTrSQgCovAM5HgtF8btzloxE/ufGZzEmGnU4mmklASHenOf49f8JKk6NO5U499dDzGxmr+QRUTOwCADfiC4FMeK9nO1LvxGm0BjLxlUykwQQk1AlYjT5zqfjVaOhoezfq51w7na53/at5nm8aAUEZAdVakuWJ0+FMYaihwPqNwMpwuVYRsPyipfKr2TDHc6MutJm43RbPT9auISmJRMBq1FBab13hoVqEyQWzmcNtXUhGGUiS5YWrsSrrGzSXgIpZ/3I02281DNjk3Xnq889/vohCVALKC2sloKKRs0m/02DttyG8LbYbzIFsfDkTaSQBKwxEeQW+lE4lGeY2bzu8UYX3TvYfLy1iQkDFlvx0PdNvM/SXx1bF1r0AQBIQSPJtnQSsPJcXwN/PHb8cmUXywaM9+xtMQHmuUjNWqSXf9i+8uTyHZJSNpsed7qYRECKq5C3JCOB3r60vpso2XiRV26ImAUHdBFSqvNQW4Aez7yFtU9ht9fRZfUp11klApftK644jfz8/7c8g7PgFAPh8V5eikpoIWOVcAQC5OdVylUJLMgL4i5tlS9WThdNqtIUsZ0qOy97YCPLCNaOqBlwSbPaNpVNIPtjvGVRoi6pRBcqMEioNrKqk1Fg5SRUM3zqXEYTvzaCtY3u4rc1BGyAICGQErNng5YYrGgXVlwAAnApnjq8lRZ1JpdQCRUCEhAwNl8oXAB8GrwazCJtj7fVsw5CAspa8GA2dD6/DG2UkyTva2nAjYEW2Bv9zKpxgSrOsK/pY6KvN6k3Asnp4QXhz+Qy8D/psPgtl2qwHIwLKjv9xYQbeKADAQa+3OQSs3ltXbkmpkklWeHmxuIKarI+FBwFljXU6NLWcht14jQTEPnc/hgSUHc+mEp+tByCNKqy87bIUZok1moAKCqsSUCY/Xk7EC0lL0sfCiYBSG3ggvOe/BO+DXe6eRhBQ90XhX19egDfKSJK7XU48CSiVDCd8FEhL+lia1luvMLJmrlI6F2JixYXwLAO9U+GIvaMRBAQKbYpMQGnnbyqRCGYRxrw7nY4aDaU/ARWTX9WoKsqZcGazj6WJgBWFa0YVcq4Sj7M8MxWH3caozeyw02bFesqMagUBNx1WwvTFSBjSqMINY286AZGjqjA0yTI8IOtcb71xBCx3GDGdQNh4bZvViy0BpZi+HkcY8A7bbdgSUCppTrgay5D1EbDaLQuRkBEnrC6ibJzcbnboTsBaSgJIAkoxPZdCeFJqN9BmksKWgFKZiOXI+ggIE1V15ipQLLOSQdiDtN3s0J2AQFJPnQQUz13JZCoWOFUTn8kk0wEfAkplMpEnFdsCmoDqUaUDAUWHRfJplucgDXOWZqJiSkDxXE4Q1lD67w4DjS0BpbKQZkjMCSi57YQ4A7tVpJ024UxAaT2RPMJWclaKxpmAooRyHIk5AaXlNz8hrC1W2ogzAaXHSIFloSmcCShKjhfEOctb95bs/i5P5jC5qkpD1/15GfyjrMLObDUJ2BAloRpNokOcgTWqYFfh+wUFAirlXXgl9ctVopAVkQ6wImBFY8FZRZCYE1CDUQW7FIOgig5NJ6BU6IqIqfPZuv4EBJpMrVtJoKok5DTLalEFUM0RrYIhoC5KIutWLvSmZvL7Gx8CVjgbUrAmoDajynWrfvu1joCikMLWMb4ERI8q0BgCQkcVBAHLMY0k+BJQFHrz9sKXgNq6I40hIEwagCJg3VGFKQFFoW8FAkrzCqzgTkBBCgQku6rdclgQUBSSIug6CNgch5XKw38eTZVGu2rUwIGAqIg3EMpvSvAhoCi0mTLXQcA6owqg32FQYqUN5RetqSSoW0lkAmroOJoo+ZsS3AgoCuk0OCqSebPfA1aPbC1RVZgIYKIJCkVJ/d8DKjeUUpcD3i6P0VCFgM17DwgppNfowZyAFbc+lHiMFsXKcSIgske9RgPmBBSF7LZ0lOtRM6qAsg3NeGyNIOLMGVlUKbVpXQPVmp9sqEQVKg27SyueyeqsNIpoFQFFIUddw5gSUMFhCA0xbPdWKilILiReqy4Cal8VTdrgsNJvt1gKrwsFiZLlRrWYgKKQLqPDa3RjT0DkVhi0e3AmoDYHkwDsddlwJqBUVTDi6MebgFraYofDRwACYwLKysPKQZ8DZwKKQhY+htxZdm3lqKr/2Xq9U5eQxGEwHfB0KRFQwStoSuqz2qwWowAA97S7rBQlSHKehnUWmiAbgTXuGrZR1pb2q0BFt0NRBzR5pGdH/essKCVUzf2qajogiJWmHun2KHsESAnYyqgqBRZN0nd2HMCWgJoH56POtiGbR1cCqq+3jkpAjXY91uMhAaYEFKW0KMh9XYcLO5FgS0At1AAAfH1oD1E2dGqckqgE3GxJdMM6Lcb7Op14ElCUUmBZKNMXtz2IKwG1N81Op2//Rk+rtc/WqxAQ8bW6VH56oI0iKryDAQFF2VrEd69nx07HgEQnjAgoGWAjy9PbRokGKgkqlIQjoKZXVaJ0W4xf7PNgSEBRylaH/tLAgybSiBsBBe1Tl0DhgZbrK/3juBGwnqgqyjcG2/a7rVtKYpOrilIWWJ0W3zeGfgo7AsqHFMjyRN/2+zv7G6ekJgLKEjOyGEji3+3u7jAZsCKgKPL17G/z7nh6272YEVCHZvrZoT3Ddg9mBNQ4IhHFRlO/NtZJyitsfVQpBBYA4P6ugw93HykcYkFAoQwoGoUmyV8du73f6sSGgDrQcKNn7Lb85p4ua2GeFj5RpRxYAIDH++58sveuzYeBmBCw3sbyGM3/fu/R3a42bAio5alvpRxus/3BgR63gcInqqoGFgDgoZ5Dv7D9cSNpwIOA9VKjKGaK/s6ug4e8HfoqqZWAusXBoN34n/Z1+YwUJlGlFlgb/S3PyL/e9dUhW3erCagPNYpCk+S3x/f/3PCY22DSpqROBJSVr1dGHMY/PdTzdJ+DwiO0amxG1WP1/druLz879HlbYWp8SwioIzWKQgHi4e7+/3bw2P2dvS0koI5RVRS7gfrl7d7f29/Vb9W4Q7iOQr3wwgs1C/XZ2o60jeY4djUT4TcaVRpVTSBgyRP3dAx6TVa9LKdJ8qC3fbfLE8nnCotUNYeA8kc5t3vso07djCpMnaUf73X0mOmZJJNkEVZ101cIQUDovWTY3PnI7OXI3HTSn2JysARUJ6kcqVU98Rt77t3u8OlovCgrmfQnwbVLkcjNZIJTXx9BjYCEjIBApZ7NH39huPsLfQ0xiuHB6VD6s1D6XCS7noNds04vQQssUQQAZhL+m4m1xXQomI1H8+kYky14pK5cpVYAgN/Yc992h/Yt72EkyTBXYtGbicRsKrmayUbzDCMIeuSqqrffLwx3NSiwpDKTzF+OZm8m80tpZi3LRvMoC1Rqkv8XAAD//4/vqondbz2cAAAAAElFTkSuQmCC;" parent="1" vertex="1">
          <mxGeometry x="315.57" y="318" width="67" height="67" as="geometry" />
        </mxCell>
        <mxCell id="m29y2VmwEVTWNMZL703p-2092" value="&lt;font style=&quot;font-size: 19px;&quot;&gt;Kafka&lt;/font&gt;" style="rounded=1;whiteSpace=wrap;html=1;dashed=1;strokeColor=none;strokeWidth=2;fillColor=#FFFFFF;fontFamily=Helvetica;fontSize=19;fontColor=#FF9933;opacity=75;verticalAlign=top;fontStyle=1;" parent="1" vertex="1">
          <mxGeometry x="280.75" y="489" width="136.75" height="133" as="geometry" />
        </mxCell>
        <mxCell id="m29y2VmwEVTWNMZL703p-2094" value="" style="shape=image;verticalLabelPosition=bottom;labelBackgroundColor=#ffffff;verticalAlign=top;aspect=fixed;imageAspect=0;image=data:image/png,iVBORw0KGgoAAAANSUhEUgAAAWkAAACLCAMAAACUXphBAAAAflBMVEX///8AAADv7+/19fUrKyvY2NjGxsYNDQ2JiYkVFRXOzs4+Pj7Ly8tZWVlOTk4HBwdERERKSkrd3d0wMDDo6OixsbEfHx+Tk5Pr6+u3t7fAwMCnp6dkZGTT09OZmZkhISF7e3tycnI4ODh9fX1mZmahoaEnJydcXFxlZWWNjY3nXILaAAAOQklEQVR4nO1d2YKqOhBUUBl1REVwATdwG///B++4pSsbgsSj4009nUMYCEXoPW2tVhquE7biwHHL/6VFCQQTf5CN6vVGNvCX4atn87n4Tvt1gLeOXz2jz4S7rktYWiFiHq2hTHS9Pmy9el4fh5mK5xOsBDGLuKFjup28em4fhW8dzyd0Xj27D0KgXdFnWW3VojF85RFdr6evnt/HYNFGXgdpFG0GHNXfr57hpwCX9H52lhVuggLl69Uz/BCEI0bpeMNccGdDTPebr5zf5yDSLN7ULmrDIOdw5OBxp8sGtq+a22dhzAid8QMJG+i9ZmafBsb0SIiTTpkFMrYRVANwmY03F10UZpRYlWgCDmN6Iw4tmfhYvGJmnwZiei0OTSzTJkHS46CVHu3gJVP7NDCNOBb4JJdmYINMJrBiMmLCD5CXeHjNzD4N4AtyoWgIWttonhG0iNEeOIlORseXr5vdJ8H1idLR7CaRW104qhbT06C5WCyagRXiRbGrAw7x77qedrZ4TJVKdFvpddG3exNrmhRDkCGt3nayPHC5gbbCQ4w2eEa2nMmnWMjgFrWMnfQH3750Us+u6yLYKvhlWEunK/OOfVsZUgBhpuLugoYjnt3TnPnziqn/NTgHHdG+KBWcufal2NRMAQQjNXkrSRtO1CeeYeudCsBJVdSlkq2cqE5jsGqxCGSDYigXioVtFcEMPUmoWygQxlxBjR9P5XN4s2O4+dquuCNWfhREsLzGUNtqvw9iJPVscnkTEdqIPeuaF8V1WWtCHeDjdJuqo7beujBuTKsFLonyPSa8KOFoLb3CyGU6IEb5bRkkvm0NcFHkMk2FZUN+vMV2fXm2NKQgcpkmKbEWRshxfGlpiNtKdpvd3/iscpkmIREJI5F2hBBsvi44PmXdB5Pr3AfnubvL6902b6qkCzItFq/PCjBNJuITts4EB5bjv6gKZ//mSrog0+I+xVJM980zHYPvemWa1dq/J9PuNX3YUPiHtdqRPY2YHSCTWp99eSLTHSqY/QtMu8FsProZEaN5LKdiSSMKdQkuFWHrNeLzmJ5y8fW3Z3omxah9UUbEbKjLSxdSiCu9tnse03wk96IR35bpSLFBv97f8lLX9dgQJz5cSsPklDs9jekQg+tZenznNR1yqW7EGtdok+nzugfr3YUY00S6NsPTmIa4lz+7fWzvyXQLFYqAFTNHHe519NlyDzHfleO4PI1pkl2wTeQtmdbvzz9hdLEm3ETIFHib6PSZNnd4fJ5zm6cxzfJAK7jwOzINkTg1jr8nJar0ubdvCDmYPH/saUyzbw3DW2/IdFS/i90ivX/SCXLeEfA0ppk+9uHg+zEdiGxVQW5A4zGmnTC8FyYxyPTpbk8KUDVXIluPo5HPoI5pl8D/QRD1rsbO2E9C8Wz2X4cpiqFDIzqmtXebMr/N604W4tlF+dQjFenyGsPh3hOPMmQtbSOh/p2eCWqmg55/wwA9JTc57PHq3fl5dDK8nDu8CKrO6c/YbL0hjaiZdrZ0N84gjdMu3m18OOeek8H15F7lPVWYgj1xkO46v/N0F7tUSfZoOdUWTDb0sSXhXsi0A5YLUtKSS6XaEwdWRnY2nGPprNuuHCXTLuT2eyCUQkWpYRqA83lvFd1Hyl18DtZwR9FsLL3EnZTm9+BuVY2SaSjyg52nrrpS6tfPZhPuapnOiXuAmYU56WivuEx91SKm21WZ5ibq8ckKd8IT2vdbt/FgKU6tsbxfU6Ng2k3pElu6QqCr/etNWdDgEaYTeiKsQv7SCMtGh72Zqky7XNmoFO/k7L82Nxwe0ZD2I2WQVYCCafA617Ci9aWvaXr71wNMw8lQbKVqyXjFns2vKtMhvkzFtqEUhlfibsVZevCzrNvbfhXUFjLTIPF9evScata6x0yl8kwHoBJgytqQz+mhTTGNZkRXMY6hI/VulzLmj8Q0VFN2QT3p1xjiwnSrPR6DkPv9z7jdUzMdUi1cBq5sfkmnKaZTupSn7KvZgZvlROmKQWQa1iMWNQjmkHfYrDdzufDywrQbBMGCUdhd/P43uLw0iWmQlGj7CNp9uN5sUlnjV2R6CibkWnkG7qCr3LhGYBpSfwMQ81MMd/W3t7XubASyIRfBUhg5PiJKY/h+eE3V69z8oURQ+RWZXkAXZE2rWPi22lX9JJ7pFjF3QHcbLdsexmCDVMd0EW+ciF5hFAyV/gh1frjjWkRXZBq/U401vIBTitgXhW53Yho2IWRItAtL2ucDHryRUI5pMKQ5fQOKaCDEEjgBXpFpVNwaGvHBq9bDINPoGnLJAzBH5O5PaCaUYhpY49JyIXAprTW0FyoyDZdq6xwPMG3NMb0A9TTm5VbKBjL5fu7PY0xTs4E+HzKAAQWV4Kj+UabbM/po23zuAMoZVGGUb4o8Fmf62CGVINSp0EcitUY6TYbswudLDweCquaYJpvHE56A9ILUQecM0pfFmc5otQiWKrUEVK80WorP14hoUFfdLSQYymeI2TB6+eodM3SN4kwTxJzAN7MvRsq7ucywrsh0E0xUTZEX6Oy9MSuPoS95Q1SPps5IBmzKDzB9ENcK2XiavAyt+Yo+Ipjt6q1ADhjwKklWCjLTXemmzAkZa74gZrM8wLT0mdA60hRPGIswoYGqXNRIjjlvPOftMSLVnzPYJg8w7YsXY8aFbicDW/RVmcZn9xTjIWZ8FLZAGAQlOtao5LTomlJKUHORKkyfyykQjOlMYxAwtVGV6SmGUhRtrTAo0BActtbRz/bj8WrUnUfFrBKyPRhdUsEkYzrTXITZh8WZ3rLbCSYlMb3XPAHzoyrnXDj/VtQKLh+53aLkXHL5zUavSM8axrTXggZxvDxmoemVWk677L4l7OmAheGFVrjkkGrkNL2jqkwHXIAs5Uy9QKryndzmOZNbfMzvpwPQG6cXxb9fegXqkFeT2WVlfESyi/kei2R7aLqnsWtUZlpIOAxjNhE3Usg5/0KnMjm+v7txB5me0SvmKL23i+MRe/oLv11Or9PmPrVaMGZP13jP5Dz/eRI6ThjN1ak879Dksqwc7tUKcbE8esVck0+az1apaunPSjE9pTQevkHaS6AOCdOar870/fJHEak+y3fHDuTj0yn7Mx+eEiLzqkUN8YNyUVNw0pAzcu5VywS8CQNMh7quSg9gnF9bwzMdsMfoo5BM2dVULfNptGwmgDjFF0vCqKEIR4CUNMA0fljVkVtdI2S3IJIIlgt8Y7LZifU2JZmG5DNcF8o/fcnYwQCcCaZrzZwNARd43y6f69FimBeFEjO2tMyg2xMGD8UfwuSyICWZhj7bqIPhixajIjE+shGma8mdctNz9LyVKkZ6abrlW2XlyQ+R6SmJQdpKwBU+rLmHX3ImaVmm4T2NyCNEM2rLGdUzjhUzTNea/M9sCRhcJ/At9C/cJ+eBaZzCwbymE1K9R4feEgVAAn4jVvN6weaXUCdYmmn4hubMgXFRv3tpfL1ouBPuZohprrpHBDTM436MKyNXBdPZOSXUcg0TiAMS1fweBe9wTKJkspYKPsozDblLqqhY8FcdHndRslxLPe1MMV1zta1NuapIqMUYofIDqnOMaplpWFFtWma5XxhDeabxHZKblRa6mzGmT1uwFDZIY8LHA6Y0xAc6aLq+XnwoKiDphzfAU9F1STyDzfIBpqHmIGMLxc2pAqS7GWT6l+tIMK0PiWi0kWEmEEo55pyeNar6aShkIlHd0Ruec8bLI0xD/2cS1WGqvRsFHY0y/YvF8ef65N5hoghvkT0rhvApGqWPNCkr1eEx6TOZ6TZINjpC/fQZxXcUgfygJ3C1TV0jY/XTCuR2cSN5LCaKivSsUe9zgQ+JPqGm2nP1WrW0EtMYUaMXq4vkJAb3BMj4F51UOAMFMjE/UEO9VLT1PPVmqMg0ZJGgkNiNFdsvTqX5lP76Y0x7Z/THnISJx/3LcY+LEjuJYINcdnZtrhdB73l7O4ahEie7HeVyWkG3frsbtm1wY+Erys5G1/I25ZXhzaq1O0zre9aQZazPvrjNG3jRFLDjvAZ2483gukNwNNi2LjMKFeeqjsFleR0d6u7W2vijy4fU7h52l7s57Fzz20Ef7OJGSsVsFzenNYuiWZwXTjEIdxFHURT/m0Z0uUyTjBDKE0kh2h+tLIpcph2SY3zijVyCvLYTFoj8DrLgPWPPGrCd3qXxwPujcFdkUn1crb79zcpCmM7Sm4+4nam4xqzBahs7bs0Nv9Aas786VwTNCecEZ8v81Npp5R/mQrz13i59i5NXJqVe+jupXM3J+Y2dum6vnQVioUwGDKVlHef9+MW+6vau/wG+dRlZyd/P2f3bturwLhZaoSAXgel/pMgK6bv4zqn5kH8jLlKv/5El+i7yM3dyp9KZqkKk8dK29X8ERwVxANntc+S2RWK5vYUCAW/eDSdfXBn6aUushE6KZ7SXdkEXAZabjnZRcErecmF4VSxjmiQTv7Hf77vrJHnT3zx4N6AzMmf2M2aMPV1ho6Geff8XQM0nVx0O6Z7KG+QsTiBG+Y1UsAfGxo2MgEw2IQWobKBt8TgY02JZfKjakWbxMKiC+0dUbuR3WyPOAKgIcS0OEdM2dGQAlul/BZIeUuMJlh/UGtQWZcA04l7UiMylUf8Kl0VJkJUnlICR8LBWnhFQDQcvJGhrpvVczAC7MmNZIexe0nQKsCgHzANkLG3YhAxu29bamQG3SX9yql91A64bhV3ShsD96F297R+PPS591bceoincaStepPOPRSG4OVtsbZ2uUQQ57RDkbsEWFRBqV3XXhjzMItDstdxbbWgaQhf+K1JrST8BibQx/n5jNouHEOw4xbhKrOR4HuL19uCvxsPDdm2t6KfDLdN/18Li3+I/qLPCoSEtlUEAAAAASUVORK5CYII=;" parent="1" vertex="1">
          <mxGeometry x="291.57" y="545" width="116.87" height="45" as="geometry" />
        </mxCell>
        <mxCell id="m29y2VmwEVTWNMZL703p-2097" value="Event Hub" style="aspect=fixed;html=1;perimeter=none;align=center;shadow=0;dashed=0;image;fontSize=12;image=img/lib/mscae/Event_Hubs.svg;labelBackgroundColor=none;fillColor=#4D9900;fontColor=#007FFF;" parent="1" vertex="1">
          <mxGeometry x="493.63" y="460" width="72.75" height="75" as="geometry" />
        </mxCell>
        <mxCell id="m29y2VmwEVTWNMZL703p-2098" value="Stream Analytics" style="aspect=fixed;html=1;perimeter=none;align=center;shadow=0;dashed=0;image;fontSize=12;image=img/lib/mscae/Stream_Analytics.svg;labelBackgroundColor=none;fillColor=#4D9900;fontColor=#007FFF;" parent="1" vertex="1">
          <mxGeometry x="497.5100000000001" y="350" width="65" height="51" as="geometry" />
        </mxCell>
        <mxCell id="m29y2VmwEVTWNMZL703p-2108" value="Queues" style="verticalLabelPosition=bottom;html=1;verticalAlign=top;strokeColor=none;fillColor=#3399FF;shape=mxgraph.azure.queue_generic;dashed=1;fontFamily=Helvetica;fontSize=14;fontColor=#004C99" parent="1" vertex="1">
          <mxGeometry x="685" y="253.25" width="50" height="15" as="geometry" />
        </mxCell>
        <mxCell id="m29y2VmwEVTWNMZL703p-2142" value="Scan Table" style="rounded=1;whiteSpace=wrap;html=1;dashed=1;strokeColor=none;strokeWidth=2;fillColor=#FFFFFF;fontFamily=Helvetica;fontSize=19;fontColor=#FF9933;opacity=75;verticalAlign=top;fontStyle=1;" parent="1" vertex="1">
          <mxGeometry x="97.25" y="181.5" width="148.75" height="158.5" as="geometry" />
        </mxCell>
        <mxCell id="m29y2VmwEVTWNMZL703p-2138" value="" style="verticalLabelPosition=bottom;html=1;verticalAlign=top;align=center;strokeColor=none;fillColor=#00BEF2;shape=mxgraph.azure.storage;pointerEvents=1;fontSize=17;fontColor=#FF9933;" parent="1" vertex="1">
          <mxGeometry x="110" y="221" width="50" height="40" as="geometry" />
        </mxCell>
        <mxCell id="m29y2VmwEVTWNMZL703p-2139" value="" style="verticalLabelPosition=bottom;html=1;verticalAlign=top;align=center;strokeColor=none;fillColor=#00BEF2;shape=mxgraph.azure.storage;pointerEvents=1;fontSize=17;fontColor=#FF9933;" parent="1" vertex="1">
          <mxGeometry x="190" y="246.5" width="50" height="40" as="geometry" />
        </mxCell>
        <mxCell id="m29y2VmwEVTWNMZL703p-2140" value="" style="verticalLabelPosition=bottom;html=1;verticalAlign=top;align=center;strokeColor=none;fillColor=#00BEF2;shape=mxgraph.azure.storage;pointerEvents=1;fontSize=17;fontColor=#FF9933;" parent="1" vertex="1">
          <mxGeometry x="110" y="286.5" width="50" height="40" as="geometry" />
        </mxCell>
        <mxCell id="m29y2VmwEVTWNMZL703p-2145" value="SQL Database" style="rounded=1;whiteSpace=wrap;html=1;dashed=1;strokeColor=none;strokeWidth=2;fillColor=#FFFFFF;fontFamily=Helvetica;fontSize=19;fontColor=#FF9933;opacity=75;verticalAlign=top;fontStyle=1;" parent="1" vertex="1">
          <mxGeometry x="98.25" y="416.5" width="148.75" height="174.5" as="geometry" />
        </mxCell>
        <mxCell id="2052" value="" style="verticalLabelPosition=bottom;html=1;verticalAlign=top;strokeColor=none;fillColor=#3399FF;shape=mxgraph.azure.sql_database;dashed=1;fontFamily=Helvetica;fontSize=14;fontColor=#004C99" parent="1" vertex="1">
          <mxGeometry x="122.5" y="453" width="89.25" height="119" as="geometry" />
        </mxCell>
        <mxCell id="2075" value="" style="arrow;html=1;endArrow=block;endFill=1;strokeColor=none;strokeWidth=4;fontFamily=Helvetica;fontSize=36;fontColor=#FFB366;fillColor=#FFB366;" parent="1" edge="1">
          <mxGeometry width="100" height="100" relative="1" as="geometry">
            <mxPoint x="214.5" y="316" as="sourcePoint" />
            <mxPoint x="294.5" y="316" as="targetPoint" />
          </mxGeometry>
        </mxCell>
        <mxCell id="m29y2VmwEVTWNMZL703p-2149" value="" style="arrow;html=1;endArrow=block;endFill=1;strokeColor=none;strokeWidth=4;fontFamily=Helvetica;fontSize=36;fontColor=#FFB366;fillColor=#FFB366;" parent="1" edge="1">
          <mxGeometry width="100" height="100" relative="1" as="geometry">
            <mxPoint x="394.5" y="535" as="sourcePoint" />
            <mxPoint x="474.5" y="535" as="targetPoint" />
          </mxGeometry>
        </mxCell>
        <mxCell id="m29y2VmwEVTWNMZL703p-2153" value="" style="arrow;html=1;endArrow=block;endFill=1;strokeColor=none;strokeWidth=4;fontFamily=Helvetica;fontSize=36;fontColor=#0000FF;fillColor=#007FFF;labelBackgroundColor=#0000FF;entryX=0.5;entryY=1;entryDx=0;entryDy=0;" parent="1" edge="1">
          <mxGeometry width="100" height="100" relative="1" as="geometry">
            <mxPoint x="163" y="407" as="sourcePoint" />
            <mxPoint x="162.875" y="345" as="targetPoint" />
          </mxGeometry>
        </mxCell>
        <mxCell id="m29y2VmwEVTWNMZL703p-2156" value="" style="arrow;html=1;endArrow=block;endFill=1;strokeColor=none;strokeWidth=4;fontFamily=Helvetica;fontSize=36;fontColor=#0000FF;fillColor=#007FFF;exitX=0.5;exitY=1;exitDx=0;exitDy=0;labelBackgroundColor=#0000FF;" parent="1" edge="1">
          <mxGeometry width="100" height="100" relative="1" as="geometry">
            <mxPoint x="348.9149999999998" y="420" as="sourcePoint" />
            <mxPoint x="348.35999999999996" y="476.5" as="targetPoint" />
          </mxGeometry>
        </mxCell>
        <mxCell id="m29y2VmwEVTWNMZL703p-2157" value="" style="shape=sortShape;perimeter=rhombusPerimeter;whiteSpace=wrap;html=1;labelBackgroundColor=default;fontSize=17;fontColor=#0000FF;fillColor=#007FFF;strokeColor=none;" parent="1" vertex="1">
          <mxGeometry x="516" y="429" width="25" height="25" as="geometry" />
        </mxCell>
        <mxCell id="m29y2VmwEVTWNMZL703p-2158" value="IPTV" style="verticalLabelPosition=bottom;html=1;verticalAlign=top;align=center;strokeColor=none;fillColor=#00BEF2;shape=mxgraph.azure.user;labelBackgroundColor=none;fontSize=19;fontColor=#007FFF;" parent="1" vertex="1">
          <mxGeometry x="1023.5" y="227" width="47.5" height="50" as="geometry" />
        </mxCell>
        <mxCell id="m29y2VmwEVTWNMZL703p-2160" value="CAED" style="verticalLabelPosition=bottom;html=1;verticalAlign=top;align=center;strokeColor=none;fillColor=#00BEF2;shape=mxgraph.azure.user;labelBackgroundColor=none;fontSize=19;fontColor=#007FFF;" parent="1" vertex="1">
          <mxGeometry x="1026.5" y="388" width="47.5" height="50" as="geometry" />
        </mxCell>
        <mxCell id="m29y2VmwEVTWNMZL703p-2162" value="MANGAHIGH" style="verticalLabelPosition=bottom;html=1;verticalAlign=top;align=center;strokeColor=none;fillColor=#00BEF2;shape=mxgraph.azure.user;labelBackgroundColor=none;fontSize=19;fontColor=#007FFF;" parent="1" vertex="1">
          <mxGeometry x="1027.5" y="513.5" width="47.5" height="50" as="geometry" />
        </mxCell>
        <mxCell id="m29y2VmwEVTWNMZL703p-2163" value="HUB" style="verticalLabelPosition=bottom;html=1;verticalAlign=top;align=center;strokeColor=none;fillColor=#00BEF2;shape=mxgraph.azure.user;labelBackgroundColor=none;fontSize=19;fontColor=#007FFF;" parent="1" vertex="1">
          <mxGeometry x="1032.5" y="647.5" width="47.5" height="50" as="geometry" />
        </mxCell>
        <mxCell id="m29y2VmwEVTWNMZL703p-2167" value="" style="shape=image;verticalLabelPosition=bottom;labelBackgroundColor=#ffffff;verticalAlign=top;aspect=fixed;imageAspect=0;image=data:image/png,iVBORw0KGgoAAAANSUhEUgAAAgAAAAIACAYAAAD0eNT6AAA2NUlEQVR42u2deZRdRbX/SZhlVlEfiPMsKhinOLbpU6fTQKKiLU6A6BN/MgiIgiBoI+jjKcZHJMk9dW53S0SBFmSSmfeCCA4QTDqd2nU7TUhCQiAQEiBA5pzfqk6jAiHp4d7bp+p8Pmt9/4BFWCt3V+39PTXs2m47AAAAAAAAAAAAAAAAAAAAAAAAAAAAqB8tnWYn1VbZL2qf94am0tz3xKkd01Q2H4i0RH1KzadUYloibT4fp/ZYpeVI98/PKtamOUptQ1Mi7+37f5TNSxtaZ+zALwsAADACHDp1zj6Neu77Yy1fUFpOirScG2vRsZarlTZ3Ki09SstKpSWrkdz/W5SWGZG2lyhtfhFpc6JK5ZDxbZW3Nk/u3ZkoAQAADIEomb+XK/IqtV9UiZytEvmN0vJXlcryGhb2ammj0rIwTu2NSst/q9R8RWlzkFuRILIAAAD9jElm7tikzTv7l+GnKy1GadnkQaEfrNa7v1uUmCRK5Sj3d94uy0YxAgAAoBA0avuWWJuvKW1LKpF/9BfGrKBaEmu52BmCcdN69md0AABAMExsq+zhDtzFqUxVWu4vcLEfiESl5oK4JB9v6cy2Z/QAAIA/ZNmoqGwOjhL7fXdQTmlZR2Efkh5V2nQobSZyfgAAAHJLY1p5d5TIz5Q2iyneVdcKd9NBafuJ1tZsNKMNAABGlLi9+wCVyGlKyxyKdJ2UyANKm3Pcb88IBACAutE8uXfPOJWv9y/vb6Qoj5g2RFqui7U9jFUBAACoGeOn2dcpLee75WiKb+7kDlee1NCxYBdGKgAAVAXXQrf/fv56Cm3u9bDScno8vWs3Ri4AAAwat6Qcl+wEpeUuiqqfNwjixLS69wsYzQAAMLDCn9ijXStbimgQesJt2zS39+7L6AYAgC3iXshTWmZRNIPUKrciwENFAADwr8KfyoeUltspkoXQPPfUMaMeAKDANJbMO5S211AUC6nr3dPFzAIAgALhroq55WClZQ2FsNBap1J7oXt6mVkBABA4TUnlk33LwBQ/9E/ZZZG2n2V2AAAE+dU/a2/3Dr3SsomCh7ao1HZybRAAICBibb7svvIocmhA7wyUTCOzBgDAYya2VfZQWn5HYUOD1Ca3WkQ3QQAAD4nK5mClpZdihoYuY1Wp8j5mEwCAL8U/sSdwwh9VSeuVtt9hVgEA5Lrwz98r1uYKihaqwdmA34ydtHhXZhkAQP6++t+lEjOfYoVqd0tA7onbuw9gtgEA5KX4b+7h/zhFCtXjlUHXS4JZBwAw0sU/Ncf0dXSjMKG6nguQ05l9AAAjQZaNilM5j2KERrCDYKmlM9ueyQgAUCdaOs1O7lAWBQiN/OFAc617W4JZCQBQY1xzlkib/6P4oLwo1nJrwxSzO7MTAKBGTEhmvkRp+78UHZTD7YC7G5KelzNLAQAo/qh4MuOm9ezPbAUAqBKuAYtK5TYKDPJAC5rK5k3MWgCAKhR/t8dKYUEeacm4pPuNzF4AgCEyJpm5o9JyMwUFeaj72Q4AABgi7p41hQR5rJ7GtPuVzGQAgMEU/0TOpoCgADSroWPW3sxoAIABEKdyhNKyieKBAtFdrn8FMxsAYCs0peZjSssaigYKTDc3T+7dmRkOALAFxrdV3qq0PEaxQIF2DLyYWQ4A8Pxl/+ldu7lGKhQKFPbbAXIasx0A4N8NgJaLKRCoANoYl+wEZjwAwOZDf1+nMKCiKNLyZFyWA5n5AFDs4l+WA5WWpykMqGgtg5vbe/clAwBAMYv/5n1/oRiggq4E3NHSaXYiEwBA4VBaplMIUMFNwBQyAQAU6+tf28MoAAhJplL7RTICABQC1xpVaXmQ5F9XbVBaVri9Z5WY+VEiFaVlZr9udy8u9r+6eFf/v5ujtCzs/zP8frXVyvHT7OvIDAAQPJGWNpJ+VfW4SuUepeXSSMu5USLfilJ7uOuqGKXdbx/uYbOG1hk7qLbKfnFqxyhtJsaJnKISuaj/pcal/P7VaRfsfmeyAwAEi0psTJ//IWu9e1wm1qIjbb/RWLJj83CSvPEi+7JIS9T/gNMf3RctsRpCp8BUziNDAECYS/9TzO79y8ok/IHpKVdQ+764y5WPTEhmvsSHOLd0ZtvHifmgSs2ZSstfXfMbYjnAJkGpGUemAIDwvv5TeyFJfputYrtjbX+uSqYxlMdjmhL5j1jLcUqbO1n92aYebEh6Xk62AIBgcHvR/UvYJPkXaqFK7E8aS+YdoY8Dd9hNpfJjpWUJcX9RE3glGQMAgiFO7Y0k9+dotUpsuzuot12WjSraeHAH3iJtPu/ONDAWtnQewHyOrAEA3qNSOYSk/qzsMqXl/HHTevZnZPSvDiXmoyqV2xgbz9GjtAoGAO+/9Gj362QWx6k9NpR9/ZqsEpXk40rL3xkrzzYIkl8zKgDA36SemG8XPJG7Rjqnj520eFdGwwDIslEqMS1KyyJMgGSNJTOeQQEA3tE8uXdPlcryonbeixP55aFT5+zDSBjCytEUs3ucmv9SWtYU/YCo+y0YEQDg19e/lrMKmrRnqVLlfYyA4RMl9l1K29kF3z76FSMBAPz6+tfyWMGS9Vq33E9L1+rinsztXw3YUNx3HMxBjAQA4Os/n7q/qWw+QORrh+uG6H7ngh4I/BMjAAByT5TM36tQX/+JXOleOCTytce9O1DUK4OubwIjAADy/aWm7Q8L9Jb7hUVs5DOSuLcGXC+FQl4lnd61GyMAAHJJ/4M/RXhDfm2c2KOJ+EgaTTmyr6NikVYBUvsjIg8AuWTzoy/BJ+Kn3fO3RHvkiVLbEGl5skAm4Om4vfsAIg8A+SLLRkWJVIJPwDzZmq+VgFLlfa51boFMwO+IOgDk62sskUMDT7zP8OWf05WnpOdtbo+8IAZgE9cCASBfX2Jabg446a53Boco59gEpJXXq0QeKMaNALmOiANALnBv2W/+Mgn2HvbxRNkDE1qSN8epPFSMdwLsWCIOADn4+pKpwX5tJfIzIuwPTYm8V2l5vADNgW4j2gAworiX7pSWlSEm2Ti1N7a2ZqOJsmcmIDUfcwc2QzcBTUnlk0QbAEaMKLFfCjTBLmlu792XCHu6KpXIp5WWjYGbgLuINACMXKLVcmuIh/7cVyTR9X5sBv8mRaxNM5EGgBH4+jevCfMry5xDdANgc2+Ky3goCACgyqhEzg4wqc5xT9AS3TDYfEbF3h32KoD9MJEGgLp+XcVa7gtt6d91liO4Qa5UrQi4L8BVRBkA6vf1v7kFa2hfUj8nsoGagNQeHvAqwEbXDZEoA0B9DEBwT7LaZVEyfy8iG/SYnRawCSgTYQCoVzLtDSqBJvKfRDVsGjoW7KK0nR2oAVjHS4EAUHOaSnPfE1jynNXSmW1PZMMnLsuBSsuaQE3A+UQYAGpKpOXcsPqqm/FEtUCrV2HeXnFXApe7VQ4iDAC1S6BaJKDE+TciWizGJDN3DHUrIErlKCIMADWh79lVvv7BexNrDnL75gGagL8TXQCoTeJM5Xi+/iGQlaz/DnIrgF4WAFCjpPnHcF77M58josWl/yXLhcEZgMS2E10AqCrNk3t3VlpWBZIoFzW0ztiBqBabWMsXAlwFeKbxIvsyogsA1UuWqaiA7v2fRkTBtbRWWv4cXFfLRE4huABQNSItk0L5Qmoqm5cSUXA0JfLe0F61jLV0EVkAqBqhXJ2KtL2EaMJzx7aUg7sSWDYHE1kAGDaHTp2zTzBfSSXTSEThOQagrbKfWxkKbBvgl0QWAIZNXLITAkmMC1tbs9FEFF4wxhP5ZWgPXLmmR0QWAIZFlMjPAmmX+mOiCVs0ANO6XhHQLZd+mYlEFgCGhWuaE8SyaFkOJJrw4uPc/DSwVy6vJKoAMPQvo+lduwXSNrWHaMLW6D/r8nhAJmCt+zsRWQAYElFqGwJZDv0p0YRtGt7U/FdgZwG+SlQBYGgGQJvvhtH6144hmrAtGqaYVyktqwMyAdcTVQAYEiq1nQEkwaWu6xvRhAGtAmjRARmAdTS+AoChGQAt9weQBMtEEgbKuKT7jUrLhmCaAqXmGKIKAIPCPSqitGzi5T8onPFN5MqAVgFuIKIAMDgDUDLjA0h+6xs6Zu1NNGFwK1/2E2wDAEBhibU9I4Dk91ciCUMzATI3IBNwJBEFgIEbgNT8NoDEdz6RhKEZYDkuIANwOREFgMEkwC7vD0AlciiRhKHQMMXsrrQ8EYgBeIK3AQBgYMmvdcYOSssaz5PeRvb/YThEWqaEsgrQlFQ+SUQBYNuJL+1+ewBd0GYTSRgOSpuDAnoc6BdEFAAG8OVjPu/99T8tmkjC8E2AnR1EP4BEKkQTALad9BI5O4D2v8cSSaiCAfhOMKsAJXkzEQWAbSQ90xHAkudBRBKGSzyt6xWBvIiZRYk9gYgCwDYMgNzuebJbzalnqBaRluuCMABariKaALAtA7DI62SXyj1EEaq2CpDKEYFsA6x0N3yIKABsEffl7P9jKKaDSEK1mJDMfInS8lQQT2Mn5oNEFAC2SFPZvMn/pU7zXSIJ1V0Vs78P5DbAD4gmAGw50SU29j3JuYeMiCRUkxCuxvab4/8jmgCwRdz1Oe+XOdu7DyCSUNV5Mb1rN6Xl6QBMwBq3pUFEAeCFKwBazvf9BsB2WTaKSEL150Yg2wCpbSCaALAlA3C55wcALVGEWhClclQQBwG1nEU0AeCFBiCVezxPcNcTRagFjRfZl/l/Q6avS+aNRBMAtmQAlnud4BK5iChCDVfI7grheeCWzmx7ogkA/6ShY8Eu3ie3xJ5KJKFWxNqeEcjrgLTKBoB/0Zx2vTqAA06HE0moFVFi38W7AAAQXnIrm4O9T2xlczCRhFqitDzo/zkA81siCQD/SmwBNAFq6Ji1N5GEGhuA6QGsAvQQSQD4J7E2X/Y8qa0gilDzeZLYowMwAJswywDwT6JUTvY8qc0hilDzFYC2yn5BHAQsmUaiCQCbv2xSOc/vpGb/lyhCXUyAFgngIOD3iSQA9Cc1W/I6qaW2kyhCXVbLtEzx/8qsXEkkAWCzAUjkSr9fOpMpRBHqMldS+8UAtgEWEkkA6F8BkD97fbUpMa1EEerBuGk9+4dwEHBiW2UPogkA27mHdPzeApDjiSLU0TAv8t0ENJXNB4gkALgzAMv8bm4iRxBFqBeumY7/qwD2q0QSANwXzdNcawIY4HxJ5fgaHMyr89PA9udEEqDgtLZmo92eoOfXmt5FJKFeNOq57w/gHMAfiSRAwWmYYnb3PZm5x4yIJNR0nnQs2CVKzEcjbU6MtWmLPDfNKjHrYy1X9/UASUxL3N59AFEGKNrXTNr9St4BAHjhvIhLdoK7YRJruVVpWR3Gc8Bb1dJIy3VKy+nO7LR0mp0YCQABE6eV1/ueuMYkM3ckkjCsL/zWGTu4oqe0nK+0zPR9W6xKerrf/Jw0riyvZZQAhGYAynKg50lqHVGEodDX23/zgb4/en8Qtj4Spc0vmpLKJ1s6s+0ZQQC+G4DEfNDzpLSSKMJAabzIvixK5aj+pe71FPUh995Y7p5HdtskbvWEkQXgowFIzTjPk9ESoghbw3W9i7T9htIyQ2nZQAGvuh5Uqb0wKpuDGW0APhkAbQ/zPPnMI4qwZXNrx0SJSZSWVRTpusm4Q4RNZfNSRiBA7pOkHOF5wplFFOG5X/vmRKVlDsV4RPWUSmy765nAqATIKa4lqN+JxtxJFKFhinmVu7KntKyg+OZOM925Cw4OAuRvBeDrnieXW4hikQ2sOcgdRnO3QSi0OX+zQ8t97krhhGTmSxi5AHlIoIn5pueJ5QaiWDzca3Zxam+ksHr5ENEyldhTx05avCsjGWAkVwC0HOf1OwBariOKBRqvrm9Fajtp1BOEHnEHBjECACNE/4Epn5cVryaKBRinaffbY22uoPAHqEQecCuR9BMAqDNuT87z5HElUQyXQ6fO2ae/Pe9aimXYihKpqFQOYdQD1MsAJPZUvzuS2U6iGB7uazBO7bH9y8QUyGIdFry1SZt3MgsAam4A5DTPE8alRDGw5X4t0ea+8xTDAmutSs0F7rlyZgRAjYi1PcPvQ4D2EqIYyFd/x6y9+zv3sc+P/tVmWMtnmB0ANTEAcpbny4UXE8UQVqJMS9/1MAoeepGtvnha1yuYKQDVTLza/tDzToAdRNFfmtOuV/c/x0uRQwN5gfBIZg0AKwDPajpR9JNI28/2J3WKGxrEqp+5wj3rzAwCGG4STuz3vU4GqfktUfSLvgd7Nu/1U9DQEOe9PNRYMuOZTQDDWQFI5Xue3x2+jCj6g2vhq7T0UsRQFbRJpfbClk6zEzMLYCgGIJFTfF8OJIoekGWj+ntOrKdwoSrr73F79wFMMoBBGwDzbc/fAriKKOYbd5dbabmcQoVqqEfjVBSzDWAwBoDHgKCGqJK8WSXSTYFCddCGODGtbrWJmQcwkATNc8BQK3NZshOUlicoTKjOzw3/Pp7etRszEGBbSTqVr3s+4W8hijk0lpsfmdpAMUIjZAJmux4TzESArRmAxB7teXOQPxHF/NDSmW3vTmZTgFAOtERpcxCzEuDFDIA2X/bc6d9NFHMylqZ37RZruZrCg3J0RujJWJtmZifAlpdqP+P1JE+kmyiOPK4zmzNjFB2UQ61zHzrMUoDnJ+6SGe/5Y0D3EcURHkNp9ytjLV0UGpTnpkGRNicyWwGeswJgP+H5xF5KFEeOKDGvUVrmUWCQF50DE3sqsxbg2a83Pff9nk/qlURxZBg/zb5OJWY+hQV5pvOZvQDu4FZZDvR8Mq8liiOwcuQa/Gh5kGKC/Dw7ZH/CLAaWcNvnvcH3ydzQOmMHIllH09jefYDSsoBCgjx/SOwHzGYoNA1TzKt8n8jueVkiWacto7T7lVEiFQoICuOaoPkusxoKS/Pk3j19n8RNifwHkayDWUx6Xq60zKVwoLAOBppvMruhkIxJZu7o+ySOk563Eck6GMVE/kHBQAFqY5zKEcxyKCTuIJ3fBsB8kCjWDtfe1726SKFAAWttU1L5JLMdimgAHvH8RG9MFGtHnMpUCgQqgB4b31Z5KzMeipXgtdzn9QpAaj5HFGs1NuwZFAZUnOuBZn48resVzHwozgqA53u7sTZfI4o1+fI/ou+QFIUBFUt3NXQs2IUMAEXZApjh9xkAOYUoVpfGtPJupeVpigEq5kqA/IYsAEXZArjabwNgWoli9Th06px9fN8W8kmf/8287PTrF2WT73wou3TW8uw6WZHdMu/x7Hq7MrtyzmNZxz2PZOfdtiT75pX3Z+PLlt+sftsBXA+EQhiAiz1fAfglUawOra3ZaKXlBgpATV+wzE69bmF2rVmRLVq5JhsMz6zbmP1t0arsV3c+lH12eg+/Z42fEVblykfIChD4FoD5ld/dvKSNKFaHSMu5JP4adazsqGT6b8uyh1ety6rB+o2bsjvufzI74aoF/L41fG2URmNA0s/3IcAriGIVjGAqh7imKCT96qq5bLPy35dlT67ZkNWKexY/lf3n7+fze9dE9n/dyhgZAsLcAkjle54vqd5KFIdHc3vvvnEqD5Hsq6uTr1kw6GX+4awIXDZ7eXZIG+cEanAo8DSyBIT55ZeYb3ru0O8misMgy0apxFxLoq/uPv/UvzzcV5TrTe+jq7OjL7uPOFT5PEBT2XyAZAHhrQBo+YLnk7OHKA4r/seR4Ksn9wXu9uZHklVrN2SnXLuQeFRXvQ1TzO5kDAisAJhmzyfmw0RxaERp99u57189TWivZLMefCrLA2vWb8rOuukB4lJdTSNrQGAGwH7Y80n5DFEcPO6RH7d9QlKv3mG/ux9YleUJtwXhegwQn+qpsWTGkz0gHANQlgN9n5QtnWYnIjk4lLbfIaFXT7f0PJ7lkafWbuSGQHW1kK0ACMcAtHcf4PukbEh6Xk4kB864srxWaVlFMq+OJt2xNMszC1esyQ5rrxCr6vUemUQWgSBonty7p+8Tsqls3kQkB/P1b24ikVdHX738vr799rzjOg8Sr6ppY2PJjiWTgP+4a2CeN4CJUzuGQA6MKJWjSODVU972/V+MTZuy7NtX0zWwipozJpm5IxkFAvgilMc9X5KLiOK2mdhW2YOGP9XTj25ZnPlE5ZFniBsvkQK8wAAs8nsFwHyOKA4gzqm5gMRdPfU8sjrzjTNv5GpgFbWS80cQggGY4/cKgP0GUdw645LuNyota0ja1dEZNyzKfGTO0qeJX1U/PmQq2QU8/zKUP3k+Cb9HFLdl8uw1JOzq6U/zn8h85ZjLaRVcRW1oTCvvJsMAxWHEHuuwPyGKL06cmnEk6urpM7/uydZu2OStAfjNvY8Sxyq/GEiWAZ9XAH7NMlyg9N3yoONfNXXebUsyn+ldvpo4Vn8bsolkA76eAfgfzyfg74jilolSezgJurpyd+p9xl0J/Nz0HmJZXc10ZpuMA/4tESem1fM+ADcSxRfS2pqNVtrOJjlXV/MfW5P5Dg8F1SAPlewEsg74uAJwkueT769EcQvGzv+nnvO43eT1/v+z6L8tI541aA7kTDeZBzxbAbBHe73/lkiFKD6Xza/9iZCUq6sjL+3NQuAGu5J41uYswGfJPuDZCoCZ6PnEe5go8vVfD5149YIgDMBfFj5JPGtzI2A2ZwHAr2JRko97PvHWEsUXbOv8nWRcfZ12/aIgDMDsB2kIVMNtIkUGAm9wjSx8n3RjJy3elUg+W/ztJ0jEtdHZNz0QhAHgXYBaytxEFgJ/VgDauw/wftK1VfYjkv0GIDHXkoRrox/evBgDgLb9RHlp7nvIROAF7pU43ydcY8m8g0hut12jtm/x/XlnDAAGIIBVgA6yEfi0Z7zO6wlXrnyEKLq2vzKV5IsBwACMuNY0TDGvIiOBLwbgUc+vAh5a+OI/vWs3peUJki8GAAOQC51OZQFfDECv15MtNV8pvAHQ5mskXQwABiAntwG03MeVQPDEAPj9YEyU2BOIofyVxIsBwADkKC+ltoHqAj4Uj1s83wL4QZHjF6XdbyfhYgAwALnrDHgJ1QXybwBS2+n5ZDu/4Abuf0i4GAAMQO60uqlsXkqFgXx/QSYm8XyiTStq7Db3/bfLSLYYAAxADpWYb1JhIOcGQH7GUpufuNajJFoMAAYgrweU5TYqDOR7CTmRsz132dcWd/tGUhItBgADkFttaEy7X0mVgTzvIZ/k+SS7vYhxa2idsYPS8ghJFgOAAcj1lcDjqDKQ3y2A1Bzj9xaA3FvEuDWWzHgSLAYAA5B7zaDKQH4NgLaf9XyC9bL8jzAAGICcaiPbAJBb/D9IZpcVLmhZNkppeZDkigHAAHiwDZDYo6k0kE8DkJgP+n7ftmgxc0+OklgxABgAb3QplQZyegbA/05yLZ1mp0LFLLHfJ6liADAA3miF69lBtYHcMW5az/6+T7CGjll7F2r/X8sMkioGAAPg09sA8iGqDeSOiW2VPXyfXM7EFCxea0mqGAAMgE/nAEwr1QZyR2trNlpp2eT1BCvJmwtzZkPbw0ioGAAMgHe6i2oDeV1SfsbvyWUOKlCszieZYgAwAN5pTUPHgl2oNpC/opLKcr+7bdkPF8gA/JlkigHAAPj4dLn5KNUG8lhUFnltAFJRRYjTmGTmjv6v1mAAMACF1elUG8ihATDW7wM28ukixMmdJCaJYgAwAN42LbuGagN5XAGY6ffSmv1SIeKU2FNJohgADIC3etR18aTiQL6+LLXc4feDQPYbBTFql5JEMQAYAI9zVfu8N1BxIFfEqb3R8yYbJxfEABiSKAYAA+BzrjKfouJAvgyANld4vgXw/dBj1Dy5d2elZT1JFAOAAfBYiZxNxYG8fVlO9/xwzQ+D36Ypm4NJoBgADIDnSm0nFQfyZgDKfk8q+XHwqzSJPZoEigHAAPguY6k4kDcDMM3ziXV+8DFKzQUkTwwABsB7bRg7afGuVB3IUXGxF3ruqn8RfIwScy3JEwOAAQjgYaCyHEjVAb4uq9cKeHL4BkC6SZ4YAAxAAAZA28OoOpCjLQDzU88PAZZCj1Gk5UmSJwYAAxDAVUBtTqTqQJ4MwDl+TyhpCzk+DUnPy0mcGAAMQDAHAX9B1YHcEGs5y/NJNT1og1aqvI+kiQHAAATTC+BKqg7kaX/5NL8bAcllYcfHtJA4MQAYgGAMwD+oOpCfFYBETsFR5zk+5tskTgwABiCYVwGXUXUgP1+YqRzv96lauTrw+PyYpIkBwAAEo/W8Cgi5IUrsCZ4fArwq6BWAVKaSNDEAGIBw1NAxa28qD+TDAGhzoucT6g9BrwBouZykiQHAAISjcUn3G6k8wB4zZwAGsgVwG0kTA4ABCKgZUGI+SOWBvHxhnuT3GQBzRdjxsbNJmhgADEBIrwLKIVQeyMcWQConYwBybAASM5+kiQHAAAT1LPAXqTyAAajOtZrfB75Cs4SkiQHAAIS0BWCPpvJATs4AeN4HILWdgRuAR0iaGAAMQEAGILXHUnkgL3vM3/F8Ql0euAF4gqSJAcAABPQgUGJPoPJATvaY7am0As61AVhN0sQAYABCagdsT6XyQD62AFL5HgYg1wZgI0kTA4ABCGgLQNszqDyQkxUAOdvv/TTz21Bj09KZbU/CxABgAALbAkjtj6g8kJctgJ94PqHKGACEAcAAeNQIqJXKAzlZYja/8LwT4EUYAIQBwABgAAAGfwZgquf7aT/HACAMAAYAAwAw+C2Ads9fAzwXA4AwABgADADAoLcA5FLPbwH8AAOAMAAYAAwAwCCJtFzleSvg72AAEAYAA4ABABj0GQB7o99nAOQ4DADCAGAAMAAAg98CuN3vO7XmGAwAwgBgADAAAIM2APZuntbEACAMAMIAQNG2ALTc5/dkkk9jAFAtddZNDwRhAOwyDAAGAODfVwBSWe7zZGosmfEYAFRLffePC4MwAP9Y8hTxxAAA9JNlo5SWDX6fAZAPYQBQLXXCVQuCMAB3LXiSeGIAADbT0DFrb98n0/i2ylsxAKiW+uJv5wVhAK41K4gnBgCgf/8/rbze98nU3N67LwYA1fiqafbMuo3eG4Apf3mYeGIAADbTlMh7fZ9MY5KZO2IAUK3lTtD7zunXLyKWGACAzaiSafR8Mq0KOT4YgPzoijmPeV38N2zclE3sqBBLDABAvwFITIvnTwE/gAFAXAXcNnMf5gogBgDgOWcA7LGe7812YQBQPXRom81Wrd3grQFI/sb+PwYA4N8NgLZneD6ZbscAoHrpxspKL4v/pk1Z300GYogBAPgnkZYpnk+mP2AAEP0AtnH/fyH3/zEAAM8/A6DtNV43AdLShgFA9dS9S57yzgCcdM0CYocBAHi+AZCZfj8EZC7AAKB66uRrFmSbPCr+f1u0irhhAAC2aACWem4AzsQAoHrr1nmPe1H8123YlB1z+X3EDAMA8FxcAx2lZaPn7wAchQFA9dbnfzMve3x1/m8EdNzzCPHCAAC8kHFlea33Eyk14zAAaCR05o0P9J2uzytdS5/OmlLihAEA2AKxth/mISAMABq6pt/7aC6L/7JV67IjLuHaHwYA4EWItPm87xNpYltlDwwAGkldPXdFror/E6s3ZF/vnE9sMAAAW1kBSOQUzyfS46HHCAOQf7ll9pt68tEgaOUz67Pj/nA/ccEAAGwdldoLPZ9IBgOA8vJc8KWzlo9o8X/wibXZVznxjwEAGJAB0OYmzyfSzRgAlCf96JbF2ao19b8d4Dr9febiHmKAAQAYqAGQ++kCiAFA1dWRl/Zmf39gVV0Kv7uKeMGflvK7YwAABk7z5N6dlZYNfjcBkh9jAFCeVwMWrFhTk8K/Zv2m7Kq5j2WH89WPAQAYLHFZDvR+IiXmmxgAlPezAT+6eXHf+wEbq9Az4NGn1vedNeCKHwYAYMhE2n7W90kUJXIoBgD5Ivcc75S7Hu7br1+1dmDnBFyjofuWr86unPNYdtr1i7KYxj4YAIBhrwBoe4b/BsC+CwOAfF0Z+PLverPTr1+UTbpjaTbtrw9n7Xc/kpX/viy78M8PZefdtiT71pX3Z4e1V/i9MAAA1UWl8mvPJ9HGsZMW74oBQAhhAAAGswKQyl88n0QLihAnDABCGACAaq8ALKcHAAYAIYQBgALRnHa92vtJlNoLMQAIIQwAwCCIUvMp/w2AHI8BQAhhAAAGt/z/Y+8nUCoKA4AQwgAADMYAaLne/yuA5jUYAIQQBgBgEMSpPOT5BHqmtTUbjQFACGEAAAbIuGk9+/s/gezsosQLA4AQBgCgSsv/ZmIANwA6MQAIIQwAwOAMwDne7/9rORcDgBDCAAAMgkjLdQGsAHwRA4AQwgAADGoFQJb6PnkatX0LBgAhhAEAGOjXf/u8NwQweZ4oyg0ADABCGACAqhAn9mj/9//N/xUpZhgAhDAAANVY/i97P3G0/TkGACGEAQAYnAGY578BkC9gABBCGACAAdIwxbwqhIlTpAOAGACEMAAAwyZK7JcCmDiPb5dlozAACCEMAMBAl/8T284BQAwAQggDAIUzAPIABwAxAAghDAAUiDjpeVsQk6ZgBwAxAAhhAACGu/9/AgcAMQAIIQwAFG35P5XbApg0K4p2ABADgBAGAGDINF5kX6a0rPf/AKBcV8T4YQAQwgAADG3/X5uvBTFpEjkNA4AQwgAADHT5X8sNQez/l+xYDABCCAMAMJCv//buA5SWDQFMmGdaOs1OGACEEAYAYEBf/+acECZLERsAYQAQwgAADImG1hk7KG0WM1kwAAghchoU6es/NV8JZbI0peZjGACEEAYAYBu0tmajVSLdYSz/y5Njkpk7YgAQQhgAgG19/SemJZSJUtT7/xgAhDAAAIPCfS0rLRKMAUjlZAwACRMhDADANnAFM6SJ0qTNOzEAJEyEMAAAW6Eh6Xm565kf0ER5sIj9/zEACGEAAAb39Z/IZUFNklSmFj2mGACEMAAAW0Vp+UxwkyQVhQHAACCEAQB4EcZN69lfpbI8sEmyosjX/zAACGEAALZK/6n/Pwc3SVL5NdHFACCEAQB4Edw+eYgTJErNp4guBgAhDADAlvb9Uzk+0AmyauykxbsSYQwAQhgAgOcRJfZLSsvGICdIajuJMAYAIQwAwPOX/RP5tNKyNtjJoU0zUcYAIIQBAPj3Zf/Nff7XBTw5FrmiR6QxAAhhAACe/fJP7bFKy4agJ4aWs4g0BgAhDACAI8tGuQFTgImxXrVV9iPgGACEMABQeBovsi9TWm4oyMT4AxHHACCEAQCKv577fqXl/qJMisaSGU/UMQAIYQCgsDRP7t1ZJfYnfUvixZkU81pbs9FEHwOAEAYACkmUyoeUlrmFmxDafI3oYwAQwgBAMff6U3thsM19tnn1z+zEKMAAIIQBgMLQMMXsHiXyA6Xl8aJOhiiRbzESMAAIYQCgEMTTu3aLEzlFabus4JNhiTvzwIjAACCEAYCwD/i19+6rtDlHpbKcieBe/ZOTGRUYAIQwABAsqlz5SKTtJUrLGiZA/yRI5aEJycyXMDowAAhhACAoxk3r2V9pOUlpO5tBv6Wvf3MMowQDgBAGAIKgSZt3Ki2nK23uLOiJ/oEVfy33cu8fA4AQBgC8paFj1t5RIodGWqa462wM7gFpk9sSYfRgABDCAIA/y/pJ9xuVliOVtiWVSDdf+UPS7xhJGACEMACQv6/61hk7jJ9mX6dKpjFOzLdjLTpO5S9FvqtfRT0dt3cfwCjDACCEAYCa0Dy5d8/GknmH0vYTkZboWcXaHqYS0+IOoEXanLj5mV3zK/dVqrT8uX8ZfwODtGZNf37A6MQAIIQBgKrhvthdRzmVyJVFekHPK6Vyj1tdYbRiABDCAMAwk6PZyX3J93+5b2Jg5Vqr3YoMoxYDgBAGAAMwrD36WMtxKpEHGEy+XPsz32XkYgAQQhiAIdNYsmNjLV0MIq/0Z+78YwAQQhiAYSRC+0OlZT0DyCs91VQ2b2IEYwAQQhiAQeNezlPaXsPA8XGg26MZwRgAhBAGYNBEyfy9lJa/MWh8PPVvL2QEYwAQQhiAIX759/XUZ9D41+v/jjHJzB0ZxRgAhBAGYHBk2Sil5XIGi4eDO5WHVFtlPwYxBgAhhAEYNJtf1GOgeKi1sbYfZgRjABBCGIDB7/un3W9XWtYwULzTJqXtVxnBGACEEAZgqEv/HPqj2Q9gABDCABTq4F8qRzBAPFQiFzF6MQAIIQzAML7+jWWA+Pblby9xsWMAYwAQQhiAIdFYMuMZHN7pBq77YQAQQhiA4R3+03IVg8Oru/7XNU/u3ZmRiwFACGEAhkzDFLO70vIMg8OXPX9zLcUfA4AQwgAM/+s/tYczMLzR79yTzIxaDABCCAMwbJQ2v2Bg+PDlb9tdUWLEYgAQQhiAahkAev7nv8XveZz2xwAghDAAVTYA8ggDI8ftfXnWFwOAEMIAVJvNr/4xKHKpVJbHJfk4oxQDgBDCAFT/67+tsh+DIo8ytqls3sQIxQAghDAAtTEAJXkzgyJ3unRiW2UPRicGACGEAajdFkBaeT2DIjdyrzCexKjEACCEMAA1p7m9d18GRS40T2lzECMSA4AQwgDUhdbWbHT/lyeDY+Ta+rY1T+7dk9GIAUAIYQDqew5ASw8DY0S0VGkzkRGIAUAIYQBGyADY3zMw6qpNSks5SubvxejDACCEMAAjdxAwkVMYGHXc609szKjDACCEMAAjTmNaeTcDo+Z6Ktb2DF7xwwAghDAAuSJKpMLgqNkhv+vGleW1jDIMAEIIA5A/A5DaHzE4qt7N705a+fpL/w0ZxjFCQcn+kOz2/HMA07pewXXAKimRbpWYFkZVCAdkZT1jGqGgdDqZbUvJLpWUwTEsmUibz/Nsb1AG4GnGNUIBbcmmcjKZbUvJbvPDQCS8we/x3xulcpTbM2YUBWcAVjDGEQroDICW48hsL7YVoOUsBsmA7/L/sSk1H2PUBG0AHmasIxSQAUjl62S2F2FMMnNHlcg/GCgvqhWRlkmN2r6F0VIAA5DIA4x5hILSkWS2rSW9zU8Er2SgPOfk6N1Rao4ZO2nxroyQQq0A0CYboaAOaXNAewBbAaaZE9BmsdJyfmPJvIMRUVgD8FeSJkIhbQGYcWS2ARAl9ktKy8aCDRC351tWJdPo7oEzCgpvAP5I0kQoHLnOt2S2gR8K/EL4/QHs7DiV85rK5gMUfXje+L+YpIlQOBo3rWd/MttgkmBJPh7Yaeg1SpubVCrH06IXtroKpmUSSROhcMQ5riHQmHa/Mk7tjZ4G/ZlIyx1Km5/G2h7WMMXsTkRhYNtg8gOSJkLB6Cmy2nBWA1I5ov9wXJ6X9JdFWq5SiT21sWTHtnSanYgcDG2822NJmggFo0VktWHS0LFgF7d8rrQsHOFgrlVa5igtl6rUnBml5lNR+7w3ECGo3hmAvtswJE6EwujaegdZrUq4A3NxKmrzQSm7rEZBW620sUrLzbEW7ToVun77Tdq80zUtIgpQUwOQ9LyNxIlQMG2ALyar1YIsG9VUmvse1yxn88Ep+/vN++4ycwu6K9Zya98yvZbL41SmRlrOdY80uC5NKpVDGvXc97tzB/ywMJK4A0P9bZ9JoAj539vlHLIaAAziHIA8ROJEKISXAM0xZDQAGDB0A0QoFANgG8hoADCIFQDzW5InQv5r/DT7OjIaAAx8BSA1Z5I8EfL+BsCT7qwaGQ0ABr4CULITSKAI+f4IkPyFbAYAg8K1iyaBIuT9my8lshkADI4sG6W0rCSBIuSxUjmeZAYAg0ZpcydJFCGPtwBK8nEyGQAMmkjLFJIoQt5q06FT5+xDJgOAwa8ApOYrJFGEvJWQxQBgaCsA7fPeQBJFyNv9/5QsBgBDXwXQspRkipCXNwC+SgYDgCETa3MFiRQhD1WSN5PBAGAYKwD2OyRThLzTo3QABIDhGYBS5X0kU4Q8UyJXkr0AYFi0tmajlbbLSKoI+fQGgP0G2QsAhk2k7SUkVYQ8MgCJeQ2ZCwCGvw2g5UiSKkLeaC5ZCwCqQnN7775Ky0YSK0I+3P83F5C1AKB6qwCp3ENyRciH/X+JyFgAUD0DkMjZJFeEcq+VLZ1mJzIWAFSNRm3fQnJFKO/X/2w72QoAqr8KoO1skixCOX7+V5tmMhUAVN8ApOZMkixCudUKlv8BoCbwOiBCvP4HAIXdBpCZJFuEcrn/H5OhAKCG2wByPMkWobzJLG7pzLYnQwFA7bYBkvl7KS1Pk3ARytHhv8S0kp0AoB7bANNJugjlRhvHleW1ZCYAqDlNqfkYSReh3OgGshIA1HMVQEi8COWg9W9qDycjAUDdiBPzbZIvQiN/+G9MMnNHMhIA1I0JycyXqFSWk4ARGsmHf8x3yUYAUP9VgNT8F0kYoRF79e9JdyuHTAQAdUe1VfZTWtaSjBEaic5/5gKyEACM3CqAlotJxgjVXeujxLyGDAQAI0aU2He5e8gkZITqufxvLyH7AMDIbwWktpOkjFDdtCFOet5G5gGAEadR27e4pERiRqguV/86yDoAkJ+tAG0vITEjVHOtc89yk3EAIDc0lc2b3MEkEjRCNdz7T0xCtgGA3KG0lEnSCNVMqzn5DwC5pDHtfqXS8gSJGqEaKLE/IcsAQH5XAVJzJskaoarr4ebJvXuSYQAgtzRP7t1ZaeklYSNUPcWJPZrsAgC5J07N50jaCFWt5/+9ra3ZaDILAPixFaDldpI3QsPWpljbD5NRAMAb+psDrSaBIzQc2RLZBAD8WwVI5GwSOEJD1tJDp87Zh0wCAN7R0DpjB6VlFokcoSHpM2QRAPCWprL5AO8EIDTog3/XkT0AwHsiLZNI6ggNWCtUW2U/MgcAeI/rDRBr6SKxIzSAO/+pHEHWAIBwtgK0eafS8gwJHqGtLv23kS0AILytgFROJskj9CJf/lrum9hW2YNMAQDhkWWjlJbrSfYIvUDro1Q+RJIAgGBpmGJe5e43k/ARes6+//fIDgBQhK2ADykta0n8CPUt/V/tVsfIDABQDBOgzYkkf1T4Q3+JVHjmFwAKh9KmgyKACqxVjSXzDjIBABSOCcnMlyhtZ1MIUBFf+Yu0/SxZAACKuwrQVtlPabOYgoAKpdScyewHgMITlc3BbjmUwoBo9gMAUDBibZrdXWgKBApcM1o6zU7MeACAf18J0PYbFAgUsExDx6y9mekAAFs0AXIuhQIFqAXNadermeEAAFszAYn8jIKBAtLD49sqb2VmAwBsi743A2yJwoEC0KPuJUwmNQDAAGltzUZH2l5CAUEe6/E4tWOYzQAAg6ShdcYOUSKXUUiQh1rJ634AAMOgpTPbXmkpU1CQR3qsUc99P7MXAGC4ZNmoOJFfUliQB8/6PhSX5UAmLQBAFYkT00qRQTnWwqayeRMzFQCgFiYgle8pLRspNihfsrPHTevZnxkKAFBDotQerrQ8Q9FBOdEtUTJ/L2YmAEA9VgIS80Gl7TKKDxphlcckM3dkRgIA1HMloH3eG5Q2liKERkCb3JkUZiEAwAjRPLl3z0jLVRQkVEc94bahmH0AACNNX+tgOZ3Dgaj2MjZKu9/OpAMAyBEqlUOUlhUUKVQj/S6e3rUbMw0AIIeMS7rfGGm5l2KFqqg1cWK+zewCAMg57lR2f9MgtgTQcCVR2RzMrAIA8IimpPJJpc1iihgaoqaz5A8A4KsJKJuXxtpcQTFDg+jqtyzW9jBmDwBAAMQlO0FpWUJxQ1tVajub23v3ZcYAAAREQ8esvaPEJK6JC8UOPU8LIm2bmCUAAAHTlJqP0UEQ9WujM4UNU8zuzAwAgALQ0ml2UlpOcl3dKIKF1QylzUHMBgCAIq4GJPIf/dsCXBksihJ5IErlKNdBkhkAAFBwGvXc9ystd1Egw1Wk5clY2zMaOhbswogHAIDnEGmJlJaZFMyg9LRK7YUNU8yrGOEAAPDiZNmovmuDifyD4um11vZt77RV9mNQAwDAgGltzUar1H5RaZlDMfXsiz+Ri5rTrlczigEAYFhEiflopOU6egjkvINfYlobkp6XM2IBAKCqNKaVd/ffGlhNwc2Net2VzrGTFu/KCAUAgJpy6NQ5+8SpPZbtgZF7ote17XWHNrnOBwAAI0Kc2jH9qwJPUZhr/zyv0nI6y/wAAJAb3FsDStuvKi03KC3rKNZV0/1Ky383JfJeRhkAAOQat0Xgus31HxzEDAyhW5+7u+8OX7LEDwAAfq4MTDG7u74CfdsErrBR4LekDa4BkzvF77ZUKPoAABAcTaW571GJnBan9sYCP0bk3l6Yq7RMU1o+M7GtsgcjAwAACoNrNrT5aqF8SyXym/797jCb82i5PU7lPJXKIW6LhOgDAAD8G1Eyf6++mwWpHOX2wWMttyotj3pU7Jf2n3043/0dmrR5Z0tntj2RBQAAGALuMZsolQ/FWr7gXrXrv3p4c6ylS2lZUpfmRKksV1p64lT+EiVymSvySpv/F2nbNL6t8tbmyb07EykAAIA6E0/v2i1KzGuUNgcpbT/R97phYmOVmBYn90XuGhhtSc/+N0qbie7POTWVzQfipOdtze29+7rtCn5hAAAAAAAAAAAAAAAAAAAAAAAAAIAC8v8B0VLwllNAtYIAAAAASUVORK5CYII=;" parent="1" vertex="1">
          <mxGeometry x="874.5" y="10" width="80" height="80" as="geometry" />
        </mxCell>
        <mxCell id="Bws1vPyYxLwOTycW2ix--2082" value="Queues" style="verticalLabelPosition=bottom;html=1;verticalAlign=top;strokeColor=none;fillColor=#3399FF;shape=mxgraph.azure.queue_generic;dashed=1;fontFamily=Helvetica;fontSize=14;fontColor=#004C99" vertex="1" parent="1">
          <mxGeometry x="685" y="399" width="50" height="15" as="geometry" />
        </mxCell>
        <mxCell id="Bws1vPyYxLwOTycW2ix--2083" value="Queues" style="verticalLabelPosition=bottom;html=1;verticalAlign=top;strokeColor=none;fillColor=#3399FF;shape=mxgraph.azure.queue_generic;dashed=1;fontFamily=Helvetica;fontSize=14;fontColor=#004C99" vertex="1" parent="1">
          <mxGeometry x="685" y="537" width="50" height="15" as="geometry" />
        </mxCell>
        <mxCell id="Bws1vPyYxLwOTycW2ix--2084" value="Queues" style="verticalLabelPosition=bottom;html=1;verticalAlign=top;strokeColor=none;fillColor=#3399FF;shape=mxgraph.azure.queue_generic;dashed=1;fontFamily=Helvetica;fontSize=14;fontColor=#004C99" vertex="1" parent="1">
          <mxGeometry x="685" y="670" width="50" height="15" as="geometry" />
        </mxCell>
        <mxCell id="Bws1vPyYxLwOTycW2ix--2087" value="Azure Function" style="aspect=fixed;html=1;points=[];align=center;image;fontSize=12;image=img/lib/azure2/compute/Function_Apps.svg;imageBackground=none;labelBackgroundColor=default;" vertex="1" parent="1">
          <mxGeometry x="846.5" y="228.5" width="68" height="60" as="geometry" />
        </mxCell>
        <mxCell id="Bws1vPyYxLwOTycW2ix--2088" value="Azure Function" style="aspect=fixed;html=1;points=[];align=center;image;fontSize=12;image=img/lib/azure2/compute/Function_Apps.svg;" vertex="1" parent="1">
          <mxGeometry x="846.5" y="374" width="68" height="60" as="geometry" />
        </mxCell>
        <mxCell id="Bws1vPyYxLwOTycW2ix--2089" value="Azure Function" style="aspect=fixed;html=1;points=[];align=center;image;fontSize=12;image=img/lib/azure2/compute/Function_Apps.svg;" vertex="1" parent="1">
          <mxGeometry x="846.5" y="501.5" width="68" height="60" as="geometry" />
        </mxCell>
        <mxCell id="Bws1vPyYxLwOTycW2ix--2090" value="Azure Function" style="aspect=fixed;html=1;points=[];align=center;image;fontSize=12;image=img/lib/azure2/compute/Function_Apps.svg;labelBackgroundColor=default;" vertex="1" parent="1">
          <mxGeometry x="846.5" y="652" width="68" height="60" as="geometry" />
        </mxCell>
        <mxCell id="Bws1vPyYxLwOTycW2ix--2091" value="" style="arrow;html=1;endArrow=block;endFill=1;strokeColor=none;strokeWidth=4;fontFamily=Helvetica;fontSize=36;fontColor=#FFB366;fillColor=#FFB366;" edge="1" parent="1">
          <mxGeometry width="100" height="100" relative="1" as="geometry">
            <mxPoint x="752" y="261" as="sourcePoint" />
            <mxPoint x="832" y="261" as="targetPoint" />
          </mxGeometry>
        </mxCell>
        <mxCell id="Bws1vPyYxLwOTycW2ix--2092" value="" style="arrow;html=1;endArrow=block;endFill=1;strokeColor=none;strokeWidth=4;fontFamily=Helvetica;fontSize=36;fontColor=#FFB366;fillColor=#FFB366;" edge="1" parent="1">
          <mxGeometry width="100" height="100" relative="1" as="geometry">
            <mxPoint x="752" y="554.67" as="sourcePoint" />
            <mxPoint x="832" y="554.67" as="targetPoint" />
          </mxGeometry>
        </mxCell>
        <mxCell id="Bws1vPyYxLwOTycW2ix--2093" value="" style="arrow;html=1;endArrow=block;endFill=1;strokeColor=none;strokeWidth=4;fontFamily=Helvetica;fontSize=36;fontColor=#FFB366;fillColor=#FFB366;" edge="1" parent="1">
          <mxGeometry width="100" height="100" relative="1" as="geometry">
            <mxPoint x="755" y="689.17" as="sourcePoint" />
            <mxPoint x="835" y="689.17" as="targetPoint" />
          </mxGeometry>
        </mxCell>
        <mxCell id="Bws1vPyYxLwOTycW2ix--2094" value="" style="arrow;html=1;endArrow=block;endFill=1;strokeColor=none;strokeWidth=4;fontFamily=Helvetica;fontSize=36;fontColor=#FFB366;fillColor=#FFB366;" edge="1" parent="1">
          <mxGeometry width="100" height="100" relative="1" as="geometry">
            <mxPoint x="930" y="255.25" as="sourcePoint" />
            <mxPoint x="1010" y="255.25" as="targetPoint" />
          </mxGeometry>
        </mxCell>
        <mxCell id="Bws1vPyYxLwOTycW2ix--2096" value="" style="arrow;html=1;endArrow=block;endFill=1;strokeColor=none;strokeWidth=4;fontFamily=Helvetica;fontSize=36;fontColor=#FFB366;fillColor=#FFB366;" edge="1" parent="1">
          <mxGeometry width="100" height="100" relative="1" as="geometry">
            <mxPoint x="930" y="414.33000000000004" as="sourcePoint" />
            <mxPoint x="1010" y="414.33000000000004" as="targetPoint" />
          </mxGeometry>
        </mxCell>
        <mxCell id="Bws1vPyYxLwOTycW2ix--2097" value="" style="arrow;html=1;endArrow=block;endFill=1;strokeColor=none;strokeWidth=4;fontFamily=Helvetica;fontSize=36;fontColor=#FFB366;fillColor=#FFB366;" edge="1" parent="1">
          <mxGeometry width="100" height="100" relative="1" as="geometry">
            <mxPoint x="930" y="531.9999999999999" as="sourcePoint" />
            <mxPoint x="1010" y="531.9999999999999" as="targetPoint" />
          </mxGeometry>
        </mxCell>
        <mxCell id="Bws1vPyYxLwOTycW2ix--2098" value="" style="arrow;html=1;endArrow=block;endFill=1;strokeColor=none;strokeWidth=4;fontFamily=Helvetica;fontSize=36;fontColor=#FFB366;fillColor=#FFB366;" edge="1" parent="1">
          <mxGeometry width="100" height="100" relative="1" as="geometry">
            <mxPoint x="937.5" y="676.17" as="sourcePoint" />
            <mxPoint x="1017.5" y="676.17" as="targetPoint" />
          </mxGeometry>
        </mxCell>
      </root>
    </mxGraphModel>
  </diagram>
</mxfile>
